<svg xmlns="http://www.w3.org/2000/svg" width="32" height="32" viewBox="0 0 32 32">
  <g fill="none" fill-rule="evenodd">
    <rect width="32" height="32"/>
    <path fill="#008BFF" fill-rule="nonzero" d="M8,2 L8,30 L24,30 L24,2 L8,2 Z M8,0 L24,0 C25.1045695,0 26,0.8954305 26,2 L26,30 C26,31.1045695 25.1045695,32 24,32 L8,32 C6.8954305,32 6,31.1045695 6,30 L6,2 C6,0.8954305 6.8954305,0 8,0 Z"/>
    <rect width="4" height="4" x="14" y="25" fill="#008BFF" opacity=".5" rx="2"/>
    <rect width="2" height="2" x="12" y="3" fill="#008BFF" opacity=".5" rx="1"/>
    <rect width="5" height="2" x="15" y="3" fill="#008BFF" opacity=".5" rx="1"/>
  </g>
</svg>
