<svg xmlns="http://www.w3.org/2000/svg" width="32" height="32" viewBox="0 0 32 32">
  <g fill="none" fill-rule="evenodd">
    <rect width="32" height="32"/>
    <path fill="#008BFF" fill-rule="nonzero" d="M2,6 L2,26 L30,26 L30,6 L2,6 Z M2,4 L30,4 C31.1045695,4 32,4.8954305 32,6 L32,26 C32,27.1045695 31.1045695,28 30,28 L2,28 C0.8954305,28 0,27.1045695 0,26 L0,6 C0,4.8954305 0.8954305,4 2,4 Z"/>
    <rect width="14" height="2" x="4" y="22" fill="#008BFF" opacity=".5" rx="1"/>
    <rect width="14" height="2" x="4" y="18" fill="#008BFF" opacity=".5" rx="1"/>
    <path fill="#008BFF" d="M24.1118881,8 C21.1748252,8 20,9.2955289 20,12.387132 C20,15.3805889 21.2307692,17 24.0745921,17 C24.4941725,17 25.3706294,16.9018539 25.3706294,16.9018539 L25.3333333,15.8124318 C25.3333333,15.8124318 24.4289044,15.9007634 24.0745921,15.9007634 C21.9487179,15.9007634 21.1282051,14.6248637 21.1282051,12.387132 C21.1282051,10.0708833 21.9114219,9.09923664 24.1118881,9.09923664 C26.3496503,9.09923664 26.8717949,9.93347874 26.8717949,12.2889858 C26.8717949,13.4471101 26.6666667,13.8495093 26.2470862,13.8495093 C26.041958,13.8495093 25.958042,13.7611778 25.958042,13.4078517 L25.958042,10.2279171 C25.958042,10.2279171 24.5874126,10.0414395 23.8881119,10.0414395 C22.3589744,10.0414395 21.995338,11.0817884 21.995338,12.5539804 C21.995338,14.1930207 22.4335664,14.9487459 23.6177156,14.9487459 C24.0745921,14.9487459 24.6153846,14.693566 24.951049,14.0458015 C25.2214452,14.8407852 25.5850816,14.9487459 26.2470862,14.9487459 C27.5990676,14.9487459 28,13.7121047 28,12.2889858 C28,9.2955289 26.955711,8 24.1118881,8 L24.1118881,8 Z M23.8787879,13.82988 C23.3659674,13.82988 23.2634033,13.3980371 23.2634033,12.4165758 C23.2634033,11.5528899 23.4498834,11.1603053 24,11.1603053 C24.1585082,11.1603053 24.6620047,11.2093784 24.6993007,11.219193 L24.6993007,13.1526718 C24.6993007,13.1526718 24.3636364,13.82988 23.8787879,13.82988 L23.8787879,13.82988 Z"/>
  </g>
</svg>
