<svg xmlns="http://www.w3.org/2000/svg" width="32" height="32" viewBox="0 0 32 32">
  <g fill="none" fill-rule="evenodd">
    <rect width="32" height="32"/>
    <path fill="#008BFF" fill-rule="nonzero" d="M16,30 C16,30 23.5622375,21.8276548 25.4764985,18.5887546 C26.4445033,16.9509054 27,15.0403243 27,13 C27,6.92486775 22.0751322,2 16,2 C9.92486775,2 5,6.92486775 5,13 C5,15.0563408 5.56425226,16.9808935 6.54637419,18.6272754 C8.46577543,21.8448672 16,30 16,30 Z M17.4679465,31.3583567 C16.6758606,32.2143468 15.3223705,32.2138061 14.5309687,31.3571835 C14.4511808,31.2708202 14.3036975,31.1103301 14.0981517,30.8852991 C13.756729,30.5115104 13.3765745,30.0924208 12.9673004,29.6375899 C11.7974038,28.3374705 10.6272279,27.0099866 9.53296932,25.7306771 C9.30995618,25.4699501 9.09199696,25.2134113 8.87948604,24.961448 C6.95052135,22.6743732 5.55777696,20.8739626 4.82876711,19.6518856 C3.63828001,17.6562103 3,15.3724424 3,13 C3,5.82029825 8.82029825,0 16,0 C23.1797017,0 29,5.82029825 29,13 C29,15.3541876 28.3715212,17.6212282 27.1982664,19.6063572 C26.4709791,20.8369162 25.0784935,22.6423358 23.1477537,24.9334116 C22.9295486,25.1923405 22.7055829,25.4560692 22.4762823,25.7241815 C21.3797529,27.0063106 20.207186,28.3357998 19.0349027,29.6372757 C18.6247951,30.0925794 18.2438635,30.512031 17.9017369,30.8860894 C17.6957516,31.1112999 17.5479381,31.2719116 17.4679465,31.3583567 Z"/>
    <path fill="#008BFF" fill-rule="nonzero" d="M16,16 C17.6568542,16 19,14.6568542 19,13 C19,11.3431458 17.6568542,10 16,10 C14.3431458,10 13,11.3431458 13,13 C13,14.6568542 14.3431458,16 16,16 Z M16,18 C13.2385763,18 11,15.7614237 11,13 C11,10.2385763 13.2385763,8 16,8 C18.7614237,8 21,10.2385763 21,13 C21,15.7614237 18.7614237,18 16,18 Z" opacity=".5"/>
  </g>
</svg>
