<svg xmlns="http://www.w3.org/2000/svg" width="48" height="48" viewBox="0 0 48 48">
  <g fill="none" fill-rule="evenodd">
    <rect width="48" height="48"/>
    <g transform="translate(1 1)">
      <path fill="#FFFFFF" d="M4 15C4 15.5522847 4.44771525 16 5 16 5.55228475 16 6 15.5522847 6 15L6 10C6 9.44771525 5.55228475 9 5 9 4.44771525 9 4 9.44771525 4 10L4 15zM4 25C4 25.5522847 4.44771525 26 5 26 5.55228475 26 6 25.5522847 6 25L6 20C6 19.4477153 5.55228475 19 5 19 4.44771525 19 4 19.4477153 4 20L4 25zM4 35C4 35.5522847 4.44771525 36 5 36 5.55228475 36 6 35.5522847 6 35L6 30C6 29.4477153 5.55228475 29 5 29 4.44771525 29 4 29.4477153 4 30L4 35zM15 42C15.5522847 42 16 41.5522847 16 41 16 40.4477153 15.5522847 40 15 40L10 40C9.44771525 40 9 40.4477153 9 41 9 41.5522847 9.44771525 42 10 42L15 42zM25 42C25.5522847 42 26 41.5522847 26 41 26 40.4477153 25.5522847 40 25 40L20 40C19.4477153 40 19 40.4477153 19 41 19 41.5522847 19.4477153 42 20 42L25 42zM35 42C35.5522847 42 36 41.5522847 36 41 36 40.4477153 35.5522847 40 35 40L30 40C29.4477153 40 29 40.4477153 29 41 29 41.5522847 29.4477153 42 30 42L35 42zM42 31C42 30.4477153 41.5522847 30 41 30 40.4477153 30 40 30.4477153 40 31L40 36C40 36.5522847 40.4477153 37 41 37 41.5522847 37 42 36.5522847 42 36L42 31zM42 21C42 20.4477153 41.5522847 20 41 20 40.4477153 20 40 20.4477153 40 21L40 26C40 26.5522847 40.4477153 27 41 27 41.5522847 27 42 26.5522847 42 26L42 21zM42 11C42 10.4477153 41.5522847 10 41 10 40.4477153 10 40 10.4477153 40 11L40 16C40 16.5522847 40.4477153 17 41 17 41.5522847 17 42 16.5522847 42 16L42 11zM15 6C15.5522847 6 16 5.55228475 16 5 16 4.44771525 15.5522847 4 15 4L10 4C9.44771525 4 9 4.44771525 9 5 9 5.55228475 9.44771525 6 10 6L15 6zM25 6C25.5522847 6 26 5.55228475 26 5 26 4.44771525 25.5522847 4 25 4L20 4C19.4477153 4 19 4.44771525 19 5 19 5.55228475 19.4477153 6 20 6L25 6zM35 6C35.5522847 6 36 5.55228475 36 5 36 4.44771525 35.5522847 4 35 4L30 4C29.4477153 4 29 4.44771525 29 5 29 5.55228475 29.4477153 6 30 6L35 6z" opacity=".4"/>
      <rect width="10" height="10" stroke="#FFFFFF" stroke-width="2" stroke-linecap="round" stroke-linejoin="round" rx="2"/>
      <rect width="10" height="10" y="36" stroke="#FFFFFF" stroke-width="2" stroke-linecap="round" stroke-linejoin="round" rx="2"/>
      <rect width="10" height="10" x="36" stroke="#FFFFFF" stroke-width="2" stroke-linecap="round" stroke-linejoin="round" rx="2"/>
      <rect width="10" height="10" x="36" y="36" stroke="#FFFFFF" stroke-width="2" stroke-linecap="round" stroke-linejoin="round" rx="2"/>
    </g>
  </g>
</svg>
