<svg xmlns="http://www.w3.org/2000/svg" width="48" height="48" viewBox="0 0 48 48" xmlns:xlink="http://www.w3.org/1999/xlink">
  <defs>
    <rect id="a" width="48" height="48"/>
  </defs>
  <g fill="none" fill-rule="evenodd">
    <mask id="b" fill="white">
      <use xlink:href="#a"/>
    </mask>
    <g transform="translate(1 -1)" mask="url(#b)">
      <path stroke="#FFFFFF" stroke-width="2" d="M38.1485528,18.274761 C43.0106099,19.9930146 46,22.5976585 46,24.9560976 C46,27.4138439 42.8317596,30.1807512 37.6106337,31.9566049 C33.6631846,33.2992293 28.4689161,34 23,34 C17.3929476,34 12.0833801,33.3421659 8.0923946,31.9417659 C3.04199315,30.1696878 0,27.3668683 0,24.9560976 C0,22.6168 2.85424747,20.0323512 7.64796338,18.3166439 C11.6983946,16.8670732 17.1825356,16 23,16 C28.7611835,16 34.1131755,16.8486341 38.1485528,18.274761 L38.1485528,18.274761 Z" stroke-linecap="round" stroke-linejoin="round"/>
      <path stroke="#FFFFFF" stroke-width="2" d="M38.1485528,18.274761 C43.0106099,19.9930146 46,22.5976585 46,24.9560976 C46,27.4138439 42.8317596,30.1807512 37.6106337,31.9566049 C33.6631846,33.2992293 28.4689161,34 23,34 C17.3929476,34 12.0833801,33.3421659 8.0923946,31.9417659 C3.04199315,30.1696878 -6.89226454e-13,27.3668683 -6.89226454e-13,24.9560976 C-6.89226454e-13,22.6168 2.85424747,20.0323512 7.64796338,18.3166439 C11.6983946,16.8670732 17.1825356,16 23,16 C28.7611835,16 34.1131755,16.8486341 38.1485528,18.274761 L38.1485528,18.274761 Z" stroke-linecap="round" stroke-linejoin="round" transform="rotate(-60 23 25)"/>
      <path stroke="#FFFFFF" stroke-width="2" d="M38.1485528,18.274761 C43.0106099,19.9930146 46,22.5976585 46,24.9560976 C46,27.4138439 42.8317596,30.1807512 37.6106337,31.9566049 C33.6631846,33.2992293 28.4689161,34 23,34 C17.3929476,34 12.0833801,33.3421659 8.0923946,31.9417659 C3.04199315,30.1696878 -7.31859018e-13,27.3668683 -7.31859018e-13,24.9560976 C-7.31859018e-13,22.6168 2.85424747,20.0323512 7.64796338,18.3166439 C11.6983946,16.8670732 17.1825356,16 23,16 C28.7611835,16 34.1131755,16.8486341 38.1485528,18.274761 L38.1485528,18.274761 Z" stroke-linecap="round" stroke-linejoin="round" transform="rotate(-120 23 25)"/>
      <circle cx="23" cy="25" r="4" fill="#FFFFFF" opacity=".4"/>
    </g>
  </g>
</svg>
