<svg xmlns="http://www.w3.org/2000/svg" width="48" height="48" viewBox="0 0 48 48">
  <g fill="none" fill-rule="evenodd">
    <rect width="48" height="48"/>
    <g stroke="#FFFFFF" stroke-width="2" transform="translate(1 4)" stroke-linecap="round" stroke-linejoin="round">
      <path d="M0,19 C0,19 3.08204388,25 7.5,25 C11.9179561,25 16,19 16,19 C16,19 20.2056075,26.2857143 26.2242991,26.2857143 C32.2429907,26.2857143 35.2523364,22 35.2523364,22 C35.2523364,22 38.0547711,25.513003 41.271028,25 C44.4872849,24.486997 46,20.2857143 46,20.2857143" opacity=".4"/>
      <path d="M39.0078964,31.9914326 C35.3594682,36.854092 29.5471172,40 23,40 C16.4528828,40 10.6405318,36.854092 6.99210361,31.9914326 C11.6646683,33.2663535 17.1426226,34 23,34 C28.8573774,34 34.3353317,33.2663535 39.0078964,31.9914326 Z M39.0078964,8.00856738 C35.3594682,3.145908 29.5471172,0 23,0 C16.4528828,0 10.6405318,3.145908 6.99210361,8.00856738 C11.6646683,6.73364649 17.1426226,6 23,6 C28.8573774,6 34.3353317,6.73364649 39.0078964,8.00856738 Z"/>
      <path d="M43.4594759,30.5181656 C45.0832798,27.3659796 46,23.7900456 46,20 C46,16.2099544 45.0832798,12.6340204 43.4594759,9.48183437 C38.0003984,7.3143819 30.8400813,6 23,6 C15.1599187,6 7.99960163,7.3143819 2.54052406,9.48183437 C0.916720216,12.6340204 0,16.2099544 0,20 C0,23.7900456 0.916720216,27.3659796 2.54052406,30.5181656 C7.99960163,32.6856181 15.1599187,34 23,34 C30.8400813,34 38.0003984,32.6856181 43.4594759,30.5181656 Z"/>
      <circle cx="27.5" cy="15.5" r="4.5" opacity=".4"/>
    </g>
  </g>
</svg>
