<svg xmlns="http://www.w3.org/2000/svg" width="48" height="48" viewBox="0 0 48 48" xmlns:xlink="http://www.w3.org/1999/xlink">
  <defs>
    <rect id="a" width="48" height="48"/>
  </defs>
  <g fill="none" fill-rule="evenodd">
    <mask id="b" fill="white">
      <use xlink:href="#a"/>
    </mask>
    <path stroke="#FFFFFF" stroke-width="2" d="M43.3736371,34.749856 C42.3259665,37.140854 41.8218242,38.2092297 40.4721934,40.3270481 C38.5895372,43.2833386 35.9349132,46.9645017 32.6422341,46.9915492 C29.7197845,47.0240062 28.9661969,45.0306063 24.9987024,45.054949 C21.0312079,45.076587 20.2040995,47.0294157 17.2763985,46.9996635 C13.9863451,46.9699112 11.4708854,43.6484797 9.58822917,40.6921892 C4.32099297,32.4318862 3.76696164,22.7353617 7.01500311,17.5774056 C9.32565508,13.9151757 12.9701834,11.7730146 16.3941495,11.7730146 C19.8785077,11.7730146 22.0710013,13.7420718 24.9566905,13.7420718 C27.7557303,13.7420718 29.4598362,11.7676051 33.4903484,11.7676051 C36.5414593,11.7676051 39.7737463,13.4797111 42.0738953,16.4332969 C34.5327675,20.6905715 35.753737,31.7827465 43.3736371,34.749856 L43.3736371,34.749856 Z" stroke-linecap="round" stroke-linejoin="round" mask="url(#b)"/>
    <path stroke="#FFFFFF" stroke-width="2" d="M30.433986,8.46781154 C31.8991494,6.53121137 33.0098378,3.79400555 32.6080995,1 C30.2134238,1.17039918 27.414384,2.7391535 25.7811732,4.78394362 C24.2923781,6.63669658 23.0687828,9.39283564 23.5466677,12.0678322 C26.1645313,12.1516795 28.8664187,10.5450586 30.433986,8.46781154 L30.433986,8.46781154 Z" stroke-linecap="round" stroke-linejoin="round" opacity=".4" mask="url(#b)"/>
  </g>
</svg>
