<svg xmlns="http://www.w3.org/2000/svg" width="186" height="46" viewBox="0 0 186 46">
  <g fill="#FFFFFF" fill-rule="evenodd" transform="translate(.833 .64)">
    <path d="M19.125,0.609635396 L19.125,14.5272261 C19.125,19.1747117 17.0566667,21.1047402 12.2054167,21.1047402 C7.35375,21.1047402 5.28541667,19.1747117 5.28541667,14.5272261 L5.28541667,0 L0.612916667,0 C0.204583333,0 0,0.203488089 0,0.609635396 L0,14.7555803 C0,22.5274991 4.97916667,25.2449561 12.2054167,25.2449561 C19.43125,25.2449561 24.4104167,22.5274991 24.4104167,14.7555803 L24.4104167,0 L19.7375,0 C19.3291667,0 19.125,0.203488089 19.125,0.609635396 Z M86.8620833,4.03826465 C87.245,4.03826465 87.42375,3.91144722 87.55125,3.6317029 L88.905,0.30461048 C88.9816667,0.101951263 88.905,0 88.7004167,0 L69.8820833,0 C68.12,0 67.4566667,0.533379167 67.4566667,1.72695492 L67.4566667,23.3397937 C67.4566667,24.3559909 67.9666667,24.8131138 69.3204167,24.8131138 L86.8620833,24.8131138 C87.245,24.8131138 87.42375,24.6858819 87.55125,24.4069665 L88.905,21.0794596 C88.9816667,20.876386 88.905,20.7748492 88.7004167,20.7748492 L72.64,20.7748492 L72.64,16.3809984 C72.64,14.8571171 73.4825,14.1712255 75.7545833,14.1712255 L82.7258333,14.1712255 C83.10875,14.1712255 83.2870833,14.0448225 83.415,13.7654926 L84.7175,10.5652176 C84.79375,10.3617295 84.7175,10.2606072 84.5129167,10.2606072 L72.64,10.2606072 L72.64,4.03826465 L86.8620833,4.03826465 Z M53.7341667,11.7335128 C55.7766667,10.6667545 56.6191667,8.66046965 56.6191667,6.29859874 C56.6191667,0.812709049 52.1254167,0 47.4783333,0 L36.85625,0 C35.0941667,0 34.4308333,0.533379167 34.4308333,1.72695492 L34.4308333,23.3397937 C34.4308333,24.3559909 34.94125,24.8131138 36.2945833,24.8131138 L49.3679167,24.8131138 C54.2958333,24.8131138 57.8191667,22.9083658 57.8191667,17.9558553 C57.8191667,14.984349 56.5425,12.4699656 53.7341667,11.7335128 Z M39.61125,3.98728902 L47.86125,3.98728902 C50.61875,3.98728902 51.385,5.02047803 51.385,7.16186898 C51.385,9.30367437 50.61875,10.3368634 47.86125,10.3368634 L39.61125,10.3368634 L39.61125,3.98728902 Z M121.522917,24.3812715 L115.93125,14.8318365 C118.714167,14.1210787 120.96125,12.292587 120.96125,7.64468695 C120.96125,1.62583253 117.2075,0 111.002917,0 L100.33,0 C98.5683333,0 97.9041667,0.533379167 97.9041667,1.72695492 L97.9041667,24.2034784 C97.9041667,24.6096257 98.10875,24.8131138 98.5170833,24.8131138 L103.0875,24.8131138 L103.0875,17.5749886 C103.0875,16.0511073 103.93,15.3652157 106.202917,15.3652157 L110.79875,15.3652157 L115.854167,24.4069665 C116.0075,24.6606013 116.160833,24.8131138 116.54375,24.8131138 L121.293333,24.8131138 C121.625417,24.8131138 121.625417,24.5333695 121.522917,24.3812715 Z M48.8316667,20.8258248 L39.61125,20.8258248 L39.61125,16.2794616 C39.61125,14.7555803 40.45375,14.0701031 42.7266667,14.0701031 L48.8316667,14.0701031 C51.7679167,14.0701031 52.585,15.1874226 52.585,17.4734518 C52.585,19.7590665 51.7679167,20.8258248 48.8316667,20.8258248 Z M111.769167,11.5047441 L103.0875,11.5047441 L103.0875,3.98770345 L111.769167,3.98770345 C115.011667,3.98770345 115.726667,5.2318404 115.726667,7.74622378 C115.726667,10.2858878 115.011667,11.5047441 111.769167,11.5047441 Z" transform="translate(61.667 9.946)"/>
    <path d="M1.98957954e-07,21.550668 C0.438379691,9.5747963 10.3374417,0 22.4848538,0 C34.9112607,0 44.9848538,10.0196638 44.9848538,22.3795455 C44.9848538,34.7394271 34.9112607,44.7590909 22.4848538,44.7590909 C10.4778933,44.7590909 0.667591445,35.4044273 0.0189893144,23.6228535 L15.8181872,23.6228535 L15.8181872,28.1675604 C15.8181872,28.6398761 16.1887364,29.0105219 16.6458319,29.0105219 L27.9072091,29.0105219 C28.3622131,29.0105219 28.7348538,28.6331152 28.7348538,28.1675604 L28.7348538,17.0059665 C28.7348538,16.5336508 28.3643047,16.1630051 27.9072091,16.1630051 L16.6458319,16.1630051 C16.1908279,16.1630051 15.8181872,16.5404118 15.8181872,17.0059665 L15.8181872,21.5506734 L-3.12250226e-16,21.5506734 Z"/>
  </g>
</svg>
