<svg xmlns="http://www.w3.org/2000/svg" width="203" height="56" viewBox="0 0 203 56">
  <g fill="#FFFFFF" fill-rule="evenodd" transform="translate(.458 .436)">
    <path d="M99.5189648 44.4303828L109.689528 16.8741548 100.221809 16.8741548 94.2683081 35.4239994 88.3148076 16.8741548 78.8470881 16.8741548 89.0176514 44.4303828 99.5189648 44.4303828zM123.663717 44.4303828L123.663717 16.8741548 115.312279 16.8741548 115.312279 44.4303828 123.663717 44.4303828zM142.97125 44.926147C150.371782 44.926147 154.878251 41.4144838 154.878251 35.341372 154.878251 25.0955781 139.539719 27.3265171 139.539719 24.7237549 139.539719 24.0214223 139.9945 23.4843444 141.64825 23.4843444 144.252907 23.4843444 147.353688 24.3932455 149.751626 26.2110476L154.216751 20.3031906C151.074626 17.7417421 147.022938 16.4610179 142.516469 16.4610179 134.950562 16.4610179 131.064249 20.9228959 131.064249 25.5913423 131.064249 36.4568415 146.444125 33.771452 146.444125 36.4155279 146.444125 37.4896837 144.95575 37.9028205 143.384688 37.9028205 139.66375 37.9028205 136.562968 36.3329005 134.495781 34.3498436L130.154687 40.5468964C133.090093 43.1909722 137.100437 44.926147 142.97125 44.926147L142.97125 44.926147zM170.092753 44.4303828L170.092753 16.8741548 161.741315 16.8741548 161.741315 44.4303828 170.092753 44.4303828zM192.955849 44.4303828L192.955849 24.1453634 200.315037 24.1453634 200.315037 16.8741548 177.203879 16.8741548 177.203879 24.1453634 184.60441 24.1453634 184.60441 44.4303828 192.955849 44.4303828zM34.1947703 29.5963899L34.1947703 21.8919617 27.1199902 21.8919617 27.1199902 29.5963899 19.4155621 29.5963899 19.4155621 36.6711699 27.1199902 36.6711699 27.1199902 44.3755981 34.1947703 44.3755981 34.1947703 36.6711699 41.8991984 36.6711699 41.8991984 29.5963899 34.1947703 29.5963899zM7.07478006 25.4420096L0 25.4420096 30.6573803 0 43.6278104 10.7639271 43.6278104 7.69177033 51.8817204 7.69177033 51.8817204 17.6136989 61.3147605 25.4420096 54.2399804 25.4420096 54.2399804 54.434067 7.07478006 54.434067 7.07478006 25.4420096z"/>
  </g>
</svg>
