<svg xmlns="http://www.w3.org/2000/svg" width="210" height="60" viewBox="0 0 210 60">
  <g fill="#FFFFFF" fill-rule="evenodd" transform="translate(.333 .355)">
    <path d="M3.125 12.3243636L23.125.832727273C24.7916667-.124909091 27.5416667-.124909091 29.25.832727273L49.1666667 12.366C50.8333333 13.3236364 52.2083333 15.7385455 52.2083333 17.6538182L52.2083333 40.6787273C52.2083333 42.6356364 50.8333333 44.9672727 49.1666667 45.9665455L29.2083333 57.4581818C27.5416667 58.4158182 24.7916667 58.4158182 23.0833333 57.4581818L3.125 45.9249091C1.45833333 44.9672727.0833333333 42.594.0833333333 40.6370909.0833333333 40.6787273.0833333333 17.6121818.0833333333 17.6121818.0833333333 15.6552727 1.45833333 13.3236364 3.125 12.3243636zM32.8333333 38.1805455L19.5 38.1805455 17.8333333 41.5530909 9.83333333 41.5530909 22.9166667 14.7809091C23.625 13.3236364 24.7916667 12.6158182 26.125 12.6158182 27.4583333 12.6158182 28.625 13.4069091 29.3333333 14.7809091L42.5 41.5530909 34.5 41.5530909 32.8333333 38.1805455zM26.2083333 24.4405455L22.625 31.8518182 29.75 31.8518182 26.2083333 24.4405455zM74.9583333 20.9847273C74.0833333 20.9847273 73.375 21.526 73.0833333 22.2754545L67.4166667 37.098 70.75 37.098 71.9166667 34.1418182 77.8333333 34.1418182 78.9166667 37.098 82.5833333 37.098 76.7916667 22.2754545C76.5 21.4843636 75.7916667 20.9847273 74.9583333 20.9847273zM74.7916667 25.8978182L76.875 31.3521818 72.7916667 31.3521818 74.7916667 25.8978182zM85.2916667 21.1096364L88.7916667 21.1096364 88.7916667 31.2272727C88.7916667 33.1009091 89.75 34.3916364 91.7916667 34.3916364 93.75 34.3916364 94.75 33.3090909 94.75 31.2272727L94.75 21.1096364 98.2083333 21.1096364 98.2083333 31.3105455C98.2083333 35.2243636 95.4583333 37.3478182 91.7083333 37.3478182 87.7916667 37.4310909 85.2916667 35.4741818 85.2916667 31.5603636L85.2916667 21.1096364zM102.041667 24.0241818L102.041667 21.1096364 114.666667 21.1096364 114.666667 24.0241818 110.083333 24.0241818 110.083333 37.1396364 106.583333 37.1396364 106.583333 24.0241818 106.625 24.0241818 102.041667 24.0241818zM117.625 26.8970909C117.625 22.9416364 120.875 20.9014545 124.208333 20.9014545 127.75 20.9014545 130.875 22.9832727 130.875 26.8554545L130.875 31.4354545C130.875 35.3909091 127.541667 37.4310909 124.291667 37.4310909 120.833333 37.4310909 117.625 35.5990909 117.625 31.7269091L117.625 26.8970909zM127.416667 26.6472727C127.416667 24.8569091 125.916667 23.8576364 124.208333 23.8576364 122.708333 23.8576364 121.125 24.6487273 121.125 26.7305455L121.125 31.602C121.125 33.434 122.583333 34.4749091 124.333333 34.4749091 125.833333 34.4749091 127.416667 33.6421818 127.416667 31.5603636L127.416667 26.6472727zM139.583333 21.1096364L143.25 30.2696364 146.875 21.1096364 151.166667 21.1096364 151.166667 37.1396364 147.833333 37.1396364 147.833333 26.6889091 144.458333 35.0994545 141.875 35.0994545 138.583333 26.7305455 138.541667 37.1396364 135.25 37.1396364 135.25 21.1096364 139.583333 21.1096364zM162.333333 20.9847273C161.458333 20.9847273 160.75 21.526 160.458333 22.2754545L154.708333 37.098 158.041667 37.098 159.208333 34.1418182 165.125 34.1418182 166.208333 37.098 169.875 37.098C169.875 37.098 164.166667 22.2754545 164.166667 22.2754545 163.875 21.4843636 163.166667 20.9847273 162.333333 20.9847273zM162.125 25.8978182L164.208333 31.3521818 160.083333 31.3521818 162.125 25.8978182zM170.458333 24.0241818L170.458333 21.1096364 183.083333 21.1096364 183.083333 24.0241818 178.5 24.0241818 178.5 37.1396364 175 37.1396364 175 24.0241818 175.041667 24.0241818 170.458333 24.0241818zM190.625 21.1096364L190.625 37.1396364 187.125 37.1396364 187.125 21.1096364 190.625 21.1096364zM195.333333 26.7721818C195.333333 22.9 198.375 20.8598182 201.916667 20.8598182 205 20.8598182 208.25 22.5252727 208.25 26.1476364L208.25 26.7721818 204.916667 26.7721818 204.916667 26.4390909C204.916667 24.5654545 203.25 23.816 201.916667 23.816 200.458333 23.816 198.833333 24.6070909 198.833333 26.6056364L198.833333 31.602C198.833333 33.3923636 200.291667 34.3916364 202.041667 34.3916364 203.333333 34.3916364 204.958333 33.6838182 204.958333 31.7269091L204.958333 31.4354545 208.25 31.4354545 208.25 32.06C208.25 35.724 205.166667 37.3478182 202 37.3478182 198.5 37.4310909 195.333333 35.5158182 195.333333 31.7685455L195.333333 26.7721818z"/>
    <path d="M36.875,38.2638182 L26.1666667,16.488 L26.1666667,22.4836364 L32.2916667,35.0578182 L17.0416667,35.0578182 L26.25,16.4463636 L26.25,13.4485455 C25.0833333,13.5318182 24.4166667,14.1563636 23.8333333,15.1556364 L11.375,40.6370909 L17.375,40.6370909 L15.5416667,38.3054545 L17.125,35.0161818 L19,37.3478182 L33.4583333,37.3478182 L35.125,40.6370909 L41.125,40.6370909 C41.0833333,40.6370909 36.875,38.2638182 36.875,38.2638182 L36.875,38.2638182 Z"/>
  </g>
</svg>
