<svg xmlns="http://www.w3.org/2000/svg" width="59" height="50" viewBox="0 0 59 50">
  <g fill="#FFFFFF" fill-rule="evenodd">
    <path d="M26.627899 35.465587L30.7531573 6.24831309 20.7008037 6.24831309 16.6703789 34.6423752C16.6161883 35.0404858 16.2774971 35.3306343 15.8710677 35.3306343L14.8888634 35.3306343C14.4892078 35.3306343 14.1505166 35.0337382 14.0895522 34.6423752L10.0929966 6.24831309 0 6.24831309 4.12525832 35.465587C4.79586682 40.2091768 7.26153846 43.7449393 12.0709529 43.7449393L18.6686567 43.7449393C23.4916188 43.7381916 25.9572905 40.2091768 26.627899 35.465587L26.627899 35.465587zM41.9706085 15.3508772C42.0247991 14.9527665 42.3634902 14.6626181 42.7699196 14.6626181L57.7536165 14.6626181 58.9390356 6.24831309 49.4082664 6.24831309 50.2888634 0 43.8537313 0 42.9731343 6.24831309 39.9791045 6.24831309C35.16969 6.24831309 32.6972445 9.77732794 32.0334099 14.5276653L31.2205511 20.3103914C30.5905855 24.757085 34.058783 28.7246964 38.5633754 28.7246964L40.0874856 28.7246964 45.5946039 28.7246964C46.0823192 28.7246964 46.4616533 29.1565452 46.393915 29.6356275L45.6894374 34.6423752C45.6352468 35.0404858 45.2965557 35.3306343 44.8901263 35.3306343L29.1003444 35.3306343 27.9149254 43.7381916 37.6895522 43.7381916 36.8089552 49.9865047 43.2440873 49.9865047 44.1246843 43.7381916 44.4091848 43.7381916 47.6809414 43.7381916C52.4903559 43.7381916 54.9628014 40.2091768 55.6266361 35.4588394L56.5817451 28.7112011C57.2117107 24.2645074 55.3556831 20.2968961 50.8510907 20.2968961L47.7148106 20.2968961 42.2076923 20.2968961C41.719977 20.2968961 41.3406429 19.8650472 41.4083812 19.3859649L41.9706085 15.3508772 41.9706085 15.3508772z"/>
  </g>
</svg>
