<svg xmlns="http://www.w3.org/2000/svg" width="218" height="89" viewBox="0 0 218 89">
  <g fill="#FFFFFF" fill-rule="evenodd" transform="translate(.167 .782)">
    <path d="M188.298492 80.6380639L188.298492 75.5168216 190.762139 75.5168216C192.659461 75.5168216 193.775956 76.4911855 193.775956 78.0689194 193.775956 79.5569327 192.748314 80.6380639 190.762139 80.6380639L188.298492 80.6380639 188.298492 80.6380639zM162.117864 80.3545474C162.117864 77.3417352 164.244947 75.3221283 167.063557 75.3221283 169.864217 75.3221283 172.009699 77.3417352 172.009699 80.3545474 172.009699 83.3314713 169.864217 85.3869665 167.063557 85.3869665 164.244947 85.3869665 162.117864 83.3314713 162.117864 80.3545474L162.117864 80.3545474zM160.628905 80.3545474C160.628905 84.0936464 163.500917 86.8049979 167.063557 86.8049979 170.626198 86.8049979 173.516159 84.0936464 173.516159 80.3545474 173.516159 76.6154483 170.626198 73.9045455 167.063557 73.9045455 163.500917 73.9045455 160.628905 76.6154483 160.628905 80.3545474L160.628905 80.3545474zM148.061612 77.164986C146.945117 75.18037 144.852588 73.9045455 142.425289 73.9045455 138.8622 73.9045455 135.990638 76.6154483 135.990638 80.3545474 135.990638 84.0936464 138.8622 86.8049979 142.425289 86.8049979 145.012792 86.8049979 147.211227 85.3869665 148.239317 83.1897131L146.803761 82.7998778C145.98793 84.3596675 144.321266 85.3690224 142.425289 85.3690224 139.641682 85.3690224 137.479596 83.3489668 137.479596 80.3545474 137.479596 77.3592307 139.588281 75.3221283 142.425289 75.3221283 144.162408 75.3221283 145.739321 76.172678 146.591052 77.5368772L148.061612 77.164986 148.061612 77.164986zM210.668319 80.7089431L210.668319 75.5168216 212.99061 75.5168216C214.940885 75.5168216 216.145783 76.4373533 216.145783 78.1043589 216.145783 79.7161865 215.02884 80.7089431 212.99061 80.7089431L210.668319 80.7089431 210.668319 80.7089431zM209.214812 74.1521738L209.214812 86.5564723 210.668319 86.5564723 210.668319 82.0726937 213.025612 82.0726937C215.897624 82.0726937 217.634293 80.5671848 217.634293 78.1043589 217.634293 75.6410844 215.897624 74.1521738 213.025612 74.1521738L209.214812 74.1521738 209.214812 74.1521738zM97.8090409 84.2529002L97.8090409 76.455746 100.698554 76.455746C102.790186 76.455746 104.562755 77.9980402 104.562755 80.4074824 104.562755 82.8178219 102.790186 84.2529002 100.734454 84.2529002L97.8090409 84.2529002 97.8090409 84.2529002zM80.3328515 86.5564723L82.9917058 86.5564723 77.8867056 74.1521738 75.5639663 74.1521738 70.4589661 86.5564723 73.1178204 86.5564723 73.7501116 84.9280465 73.7528042 84.9208688 74.0391078 84.1815724 74.0409028 84.1815724 74.8899412 82.0027117 76.1136873 78.8656368C76.3793483 78.1747895 76.6984109 77.1474905 76.7159122 77.1474905L76.7334135 77.1474905C76.7522611 77.1474905 77.0699773 78.1747895 77.3365359 78.8656368L79.4084229 84.1815724 79.4106666 84.1815724 80.3328515 86.5564723 80.3328515 86.5564723zM50.0739676 84.2529002L50.0739676 76.455746 52.9639291 76.455746C55.0551124 76.455746 56.8285794 77.9980402 56.8285794 80.4074824 56.8285794 82.8178219 55.0551124 84.2529002 52.9989317 84.2529002L50.0739676 84.2529002 50.0739676 84.2529002zM47.6107691 74.1521738L47.6107691 86.5564723 52.9989317 86.5564723C56.5265695 86.5564723 59.3810796 84.1120391 59.3810796 80.4074824 59.3810796 76.6863275 56.5090682 74.1521738 52.9639291 74.1521738L47.6107691 74.1521738 47.6107691 74.1521738zM27.2845571 76.455746L34.2770074 76.455746 34.2770074 74.1521738 24.5539025 74.1521738 24.5539025 76.455746 27.2845571 76.455746 27.2845571 76.455746zM24.5539025 86.5564723L34.2770074 86.5564723 34.2770074 84.2529002 24.5539025 84.2529002 24.5539025 86.5564723zM27.7719015 81.4361272L34.2770074 81.4361272 34.2770074 79.2729676 24.5539025 79.2729676 24.5539025 81.4361272 27.7719015 81.4361272 27.7719015 81.4361272zM9.82003525 74.1521738L6.98392399 81.6658115C6.54100598 82.8878038 6.29284624 83.8092327 6.27489617 83.8092327L6.2569461 83.8092327C6.23944478 83.8092327 5.97378372 82.8878038 5.54836703 81.6658115L2.69475445 74.1521738 0 74.1521738 4.94524464 86.5564723 7.56864756 86.5564723 12.5143409 74.1521738 9.82003525 74.1521738 9.82003525 74.1521738zM120.197267 86.5564723L122.660915 86.5564723 122.660915 74.1521738 120.197267 74.1521738 120.197267 86.5564723zM95.3453937 74.1521738L95.3453937 86.5564723 100.734454 86.5564723C104.261194 86.5564723 107.115255 84.1120391 107.115255 80.4074824 107.115255 76.6863275 104.24459 74.1521738 100.698554 74.1521738L95.3453937 74.1521738 95.3453937 74.1521738zM195.689882 86.5564723L192.676963 81.6299233C194.325228 81.0987784 195.264465 79.8408979 195.264465 78.0689194 195.264465 75.6756268 193.527796 74.1521738 190.620333 74.1521738L186.845433 74.1521738 186.845433 86.5564723 188.298492 86.5564723 188.298492 81.9318326 190.620333 81.9318326C190.83349 81.9318326 191.0637 81.9318326 191.258907 81.9143371L194.059567 86.5564723 195.689882 86.5564723 195.689882 86.5564723zM134.248683 9.5955457L121.018431 36.4552899 121.018632 36.4552899 120.139292 38.2406516 120.13909 38.2406516 111.801161 55.1681818 104.476134 40.2295204C87.1429402 41.9119328 72.9166667 37.2558037 72.9166667 29.4246586 72.9166667 23.690105 80.2036961 17.6013049 91.1591083 13.1747382 94.3154317 11.9000566 97.776816 10.7634402 101.455871 9.8131312L101.609509 9.77377048 101.763549 9.73420792 101.91759 9.69504905 102.072235 9.65609203 102.226678 9.61733687 102.381524 9.5789854 102.538787 9.54023023 102.692022 9.50268616 102.847674 9.46494025 103.003526 9.42739618 103.159379 9.38985211 103.361746 9.3420137 103.63761 9.27742176C106.250462 8.66823898 108.959967 8.15392562 111.738337 7.75042781 114.980641 7.27971402 118.129917 6.98682992 121.140053 6.85946268L120.469321 8.31278143C117.733438 8.45387446 114.8562 8.77239349 111.886739 9.282468 108.584547 9.84983749 107.289432 10.5765524 102.465921 11.8921823L111.801161 32.1256111 120.156609 14.0154428 120.15681 14.0156446 126.623095 0 138.975142 0 135.227206 7.60897077C138.52103 8.16623747 141.401599 8.99647699 143.75 10.0666546L142.881533 12.0288368C141.152017 10.7542141 137.726309 9.96076764 134.248683 9.5955457zM92.4980991 15.8021556L103.942696 39.1416359C89.6218334 40.0210657 79.0064075 36.4515197 79.0064075 29.581294 79.0064075 24.7582943 84.2385547 19.9542684 92.3112922 15.8980961 92.3112922 15.8980961 92.3760146 15.8642064 92.4980991 15.8021556zM90.33192 11.3841284L84.7498086 0 96.9792277 0 100.771044 8.21831571C97.0633963 9.09898651 93.5556991 10.1697998 90.33192 11.3841284zM132.974604 34.1301817C129.828751 35.4377649 126.366763 36.6082921 122.675828 37.5910989L123.661285 35.5903634C127.832062 34.1606611 131.593473 32.4334321 134.746776 30.5322086L132.974604 34.1301817z"/>
  </g>
</svg>
