<svg xmlns="http://www.w3.org/2000/svg" width="209" height="33" viewBox="0 0 209 33">
  <g fill="#FFFFFF" fill-rule="evenodd" transform="translate(.333 .886)">
    <path d="M13.4408602 30.8886037L.672043011 30.8886037.672043011 1.25506742 12.2647849 1.25506742C16.1290323 1.25506742 19.1532258 4.64175729 19.1532258 8.70578512 19.1532258 11.415137 17.9771505 13.7858199 15.625 14.8018269L15.625 14.8018269C18.4811828 14.8018269 21.8413978 18.3578512 21.8413978 22.2525446 21.8413978 27.5019139 17.641129 30.8886037 13.4408602 30.8886037L13.4408602 30.8886037zM10.2486559 5.82709874L6.21639785 5.82709874 6.21639785 13.1084819 10.0806452 13.1084819C11.9287634 13.1084819 13.4408602 11.5844715 13.4408602 9.2137886 13.4408602 7.52044367 12.0967742 5.82709874 10.2486559 5.82709874L10.2486559 5.82709874zM11.7607527 17.8498478L6.21639785 17.8498478 6.21639785 26.3165724 11.5927419 26.3165724C13.608871 26.3165724 15.7930108 25.131231 15.7930108 22.0832101 15.9610215 19.2045237 13.7768817 17.8498478 11.7607527 17.8498478L11.7607527 17.8498478zM48.0510753 30.8886037L39.3145161 18.1885167 39.3145161 30.8886037 33.7701613 30.8886037 33.7701613 1.25506742 43.8508065 1.25506742C48.7231183 1.25506742 52.7553763 4.81109178 52.7553763 10.2297956 52.7553763 14.9711614 49.2271505 17.6805133 45.530914 18.3578512 46.0349462 19.2045237 54.9395161 30.8886037 54.9395161 30.8886037L48.0510753 30.8886037 48.0510753 30.8886037 48.0510753 30.8886037 48.0510753 30.8886037 48.0510753 30.8886037zM42.3387097 5.82709874L39.3145161 5.82709874 39.3145161 14.8018269 42.6747312 14.8018269C44.5228495 14.8018269 46.875 13.4471509 46.875 10.0604611 47.0430108 7.01244019 44.858871 5.82709874 42.3387097 5.82709874L42.3387097 5.82709874z"/>
    <polygon points="66.868 30.889 66.868 1.255 72.413 1.255 72.413 30.889 66.868 30.889"/>
    <polygon points="96.774 6.335 96.774 30.889 91.062 30.889 91.062 6.335 85.013 6.335 85.013 1.255 102.655 1.255 102.655 6.504 96.774 6.504"/>
    <path d="M161.122312 31.2272727C153.057796 31.2272727 146.841398 24.2845585 146.841398 16.1565028 146.841398 7.85911266 153.225806.747063941 161.458333.747063941 164.986559.747063941 168.682796 2.60974337 168.682796 2.60974337L168.682796 8.87511962C168.682796 8.87511962 165.994624 6.16576773 161.458333 6.16576773 156.418011 6.16576773 152.553763 10.737799 152.553763 15.8178338 152.553763 21.0672031 156.25 25.9779034 161.458333 25.9779034 164.482527 25.9779034 166.834677 24.792562 168.850806 23.2685515L168.850806 29.1952588C168.010753 29.8725968 164.818548 31.2272727 161.122312 31.2272727L161.122312 31.2272727zM192.372312 31.0579382C184.139785 31.0579382 177.587366 24.2845585 177.587366 15.8178338 177.587366 7.18177468 184.307796.577729448 192.540323.577729448 200.772849.577729448 207.66129 7.35110918 207.66129 15.8178338 207.49328 24.2845585 200.604839 31.0579382 192.372312 31.0579382L192.372312 31.0579382zM192.372312 6.16576773C186.827957 6.16576773 182.96371 10.3991301 182.96371 15.9871683 182.96371 21.5752066 186.995968 25.8085689 192.372312 25.8085689 197.916667 25.8085689 201.948925 21.4058721 201.948925 15.9871683 201.948925 10.2297956 197.916667 6.16576773 192.372312 6.16576773L192.372312 6.16576773z"/>
    <polygon points="135.585 19.035 135.585 13.447 127.016 13.447 127.016 4.811 121.304 4.811 121.304 13.447 112.735 13.447 112.735 19.035 121.304 19.035 121.304 27.841 127.016 27.841 127.016 19.035"/>
  </g>
</svg>
