<svg xmlns="http://www.w3.org/2000/svg" width="155" height="59" viewBox="0 0 155 59">
  <path fill="#FFFFFF" fill-rule="evenodd" d="M70.685313,12.9973806 C74.4372382,14.0152038 81.6593708,17.1688053 88.6151625,17.1688053 C93.3392841,17.1688053 98.9087835,14.1354439 98.9087835,12.5443255 C98.9087835,12.1464443 98.9087835,11.7487663 97.9143171,11.7487663 C96.8203228,11.7487663 97.4170839,11.8482874 94.681895,12.2957259 C92.095998,12.6936071 88.913543,12.594086 86.4271739,12.594086 C79.6641524,12.494565 71.3596673,11.1022856 68.0285299,10.5055654 C65.143643,10.0085694 62.507982,9.80952727 60.1709047,9.80952727 C47.7886199,9.80952727 42.7661177,14.7819246 42.7161506,19.7047645 C42.6665898,22.3400417 44.6059618,25.0252825 47.4902394,25.0252825 C52.6618303,25.0252825 55.6456357,19.655004 55.8942523,17.715765 C55.8942523,17.715765 55.9935771,17.3676443 55.6951965,17.1190448 C55.5467172,17.0195237 55.1481994,17.0692843 54.9991107,17.4174049 C54.3028217,19.0582838 51.518072,20.9477623 49.5291392,21.2958829 C47.689092,21.6440035 46.4458059,20.6494022 46.3464811,19.1080443 C46.1476285,15.3288843 50.4240777,11.2018067 60.0216129,11.2018067 C62.7572079,11.2018067 66.2376372,11.9476053 70.0674297,12.8426856 C70.0992557,12.8498583 70.1314172,12.8572532 70.1639111,12.864866 C68.6248147,13.2064184 63.1899159,17.3961759 58.9276186,23.9311601 C57.7838603,24.0804417 53.0099747,24.4783228 51.4193566,26.2682803 C51.2694554,26.4673224 51.1201636,26.815443 51.1201636,26.914761 C51.2196915,27.3126421 51.518072,27.5114812 51.9657444,27.1633605 C52.9602108,26.0196807 56.9882466,25.5722421 57.9331522,25.5224816 C52.0650692,33.7766368 46.6448617,39.1966758 41.8212121,39.1966758 C41.3239789,39.1966758 40.8265426,39.2464364 40.2795455,39.0971548 C38.3401735,38.6497162 37.1964152,36.6111592 37.1964152,34.7712381 C37.1964152,32.3348 39.5336957,29.6993197 40.8763065,29.2021206 C41.3239789,29.0032816 41.5228316,28.7544789 41.5228316,28.5556399 C41.5228316,28.2572798 41.3239789,28.0584408 40.7769818,28.0584408 C36.1521849,29.2021206 33.6658158,32.9812807 33.7155797,36.0639965 C33.8149045,41.1359149 37.6440876,43.9702341 41.9703008,43.9702341 C48.0372365,43.9702341 51.1201636,41.3347539 61.0160793,25.3236426 C64.9453996,24.9257614 66.8847716,24.6771619 68.8730951,24.3290412 C68.8730951,24.3290412 69.4698562,25.7710812 70.9617589,25.7710812 C71.2103755,25.8208417 71.1606116,25.5722421 71.3099034,25.0252825 C70.6633783,24.975522 69.9173254,24.5278803 69.9173254,23.9811237 C70.5140865,23.6827636 71.0115228,23.334643 71.4589921,22.9865224 C72.1061265,22.3898022 72.7520422,21.1466013 72.7520422,20.3014847 C72.7520422,19.5057224 72.1558904,18.7599237 71.2601394,18.6108452 C69.6687088,18.3622457 68.4256258,19.655004 68.276334,21.7932851 C68.276334,22.3400417 68.4753898,22.9865224 68.4753898,22.9865224 C68.4753898,22.9865224 64.9943511,23.5832426 62.0107488,23.7323211 C65.6906401,17.5167228 69.0727602,15.3288843 70.0674297,14.4340071 C70.2654699,14.2847255 70.7629062,13.7377659 70.8124671,13.6382448 C70.9267382,13.3528197 70.827879,13.1329223 70.685313,12.9973806 Z M77.0833333,58.2909091 C119.655283,58.2909091 154.166667,45.2420446 154.166667,29.1454545 C154.166667,13.0488645 119.655283,0 77.0833333,0 C34.5113839,0 0,13.0488645 0,29.1454545 C0,45.2420446 34.5113839,58.2909091 77.0833333,58.2909091 Z M77.0833333,55.6505543 C117.972597,55.6505543 151.119895,43.7838169 151.119895,29.1454545 C151.119895,14.5070921 117.972597,2.64035477 77.0833333,2.64035477 C36.1940696,2.64035477 3.04677207,14.5070921 3.04677207,29.1454545 C3.04677207,43.7838169 36.1940696,55.6505543 77.0833333,55.6505543 Z M77.0833333,53.2133038 C116.626448,53.2133038 148.682477,42.4377606 148.682477,29.1454545 C148.682477,15.8531485 116.626448,5.07760532 77.0833333,5.07760532 C37.5402182,5.07760532 5.48418972,15.8531485 5.48418972,29.1454545 C5.48418972,42.4377606 37.5402182,53.2133038 77.0833333,53.2133038 Z M95.9257905,33.9756789 C99.3066919,30.793239 101.1963,27.4617206 106.069713,27.5114812 C109.003552,27.5612417 109.749402,29.8981588 110.246838,30.8927601 L116.661715,20.0528851 L120.590223,20.0528851 L109.948457,38.8983157 C109.749402,39.2961969 109.252168,40.0419956 109.301932,40.6387157 C109.40207,41.5835565 110.594982,41.3347539 110.14731,41.3347539 C112.285535,41.2354359 116.214246,37.1579157 117.158948,36.1635175 C117.357801,35.914918 117.705945,35.4674794 117.904798,35.4674794 C118.103854,35.4674794 118.501559,35.6663184 118.501559,35.9646785 C118.501559,36.1635175 118.05409,36.9093162 117.705945,37.3569579 C115.716809,39.8431565 112.434827,43.6718741 108.705171,43.7713951 C106.865327,43.7713951 106.169038,43.0255965 105.920422,41.5835565 C105.075044,42.3293552 102.190969,43.6223166 99.256928,43.6223166 C96.8203228,43.572353 95.8256533,42.1305162 95.3284201,40.9868364 C94.8815602,40.0419956 94.681895,38.6497162 95.0300395,37.2574368 C93.6874286,37.9534749 92.4441425,38.052996 90.6540624,38.0034386 C88.5653986,37.9534749 87.2725516,37.0088373 86.6266359,34.5723991 C84.2389822,38.9480763 84.1396574,39.0971548 81.7028491,43.6718741 L77.4761638,43.6718741 L82.8963713,34.472878 C83.5926603,33.2298803 83.9406017,32.2352789 84.1894214,31.1911202 C84.3385101,30.5944 83.8910408,30.0474404 83.2445158,29.9976798 C82.54843,29.9976798 81.4052811,30.693718 80.3104743,31.7380798 C80.3104743,31.7380798 77.5257246,34.7214776 75.4870279,37.7546359 C73.5476559,40.6387157 70.2159091,43.9204736 66.5857817,43.9204736 C63.9501208,43.9204736 61.5632795,42.4786368 61.0658432,39.6938749 C61.0658432,39.6938749 60.8172266,40.3403557 58.4799462,41.6828745 C58.2810935,41.7823956 57.7838603,42.0807557 57.635381,41.9812346 C57.1870993,41.5835565 56.9384827,41.0863574 56.8887187,40.7382368 C57.0380105,40.7879973 57.3363911,40.5391947 58.2810935,39.793396 C60.1209376,38.4011166 60.5188461,37.3071973 60.5188461,37.3071973 C60.9665184,36.3623565 61.7627415,34.8707592 62.3091293,33.8263973 C63.8016414,30.8429996 66.386726,27.8098412 70.6136144,27.6605596 C71.3099034,27.6605596 71.508756,27.9589197 71.6578448,28.2075193 C72.0557532,28.5058794 71.9064614,29.1025996 71.9064614,29.1025996 C68.922859,29.5500381 66.8847716,31.2904381 65.6408762,32.9812807 C64.8956357,34.0749969 64.0992095,35.8651574 63.9501208,37.1579157 C63.6517402,39.395718 64.6959706,40.8873153 66.2376372,41.2354359 C69.1217117,41.6828745 71.508756,39.594557 73.3983641,36.3623565 C73.8955973,35.5170368 74.2445542,33.3291982 74.2445542,32.1357579 C74.2445542,30.9423175 73.5974199,29.6993197 73.100796,29.2021206 C73.100796,28.3568009 73.6469807,27.8098412 74.2935057,27.8098412 C74.4923584,27.8098412 74.691211,27.8098412 74.8902668,28.0086803 C75.8847332,29.0032816 76.4317303,30.8927601 76.4317303,32.3348 C76.4317303,32.8319991 76.4317303,33.3291982 76.3324056,33.8263973 C78.4208663,31.2904381 81.0565272,28.0086803 83.095224,27.3621996 C83.4939449,27.1633605 83.8910408,27.1633605 84.2887462,27.1633605 C88.0184014,27.0640426 87.5211682,30.4453215 87.5211682,30.4453215 C89.5103041,28.1577588 90.902679,27.3126421 92.7425231,27.4119601 C94.731659,27.5114812 95.427948,28.9037605 95.427948,29.9976798 C95.378184,31.2904381 94.4332784,32.7822386 92.7930995,32.8319991 C91.3501482,32.8319991 90.5047705,32.1357579 90.0573013,30.8429996 C89.1123957,31.1911202 88.6655358,31.8376009 88.4658707,33.1303592 C88.1676932,34.7712381 89.4107762,36.0639965 91.0020037,36.0639965 C93.7369895,36.0639965 94.9313241,34.8707592 95.9257905,33.9756789 Z M106.269175,29.8486013 C104.528047,29.6495592 102.340058,31.1413596 100.549775,33.3291982 C99.6548364,34.4231175 98.7099308,36.5116381 98.5608421,37.7546359 C98.3617863,38.9978368 98.7099308,40.2410377 99.1576032,40.5889552 C99.6050725,40.9370758 101.594208,41.9812346 104.677339,38.8487583 C106.417655,37.1083583 108.10841,34.274039 108.10841,34.274039 L107.561616,34.1247574 C108.605847,32.1855184 108.406994,30.0972009 106.269175,29.8486013 Z M69.6687088,22.8870013 C69.6687088,22.8870013 70.1661451,22.9367619 70.9119949,22.0914421 C71.2103755,21.7932851 71.7076087,20.8980018 71.6082839,20.3014847 C71.55852,20.0031246 71.4092282,19.655004 71.0618961,19.7047645 C70.3152339,19.853843 69.8677646,20.2019636 69.6687088,20.9477623 C69.4200922,21.7433215 69.5196201,22.2902812 69.6687088,22.8870013 Z" transform="translate(.417 .355)"/>
</svg>
