<svg xmlns="http://www.w3.org/2000/svg" width="255" height="58" viewBox="0 0 255 58">
  <g fill="#FFFFFF" fill-rule="evenodd" transform="translate(.417 .395)">
    <path d="M19.8782412,41.5631632 C19.8748492,41.5311706 19.8734925,41.4971574 19.8755276,41.4607868 C19.1937437,41.1812721 18.700892,40.5474809 18.6167714,39.8086191 C18.5848869,39.5331456 18.6099874,39.2600294 18.6869849,39.0020676 C18.5828518,38.9279794 18.4834673,38.8431147 18.3861181,38.7535353 C18.2178769,38.9791676 18.1025503,39.2482426 18.0608291,39.5459426 C17.9573744,40.2811 18.3352387,40.9704574 18.9539322,41.3072221 C18.8962688,41.4025265 18.8518342,41.4937897 18.8433543,41.5567647 C18.8331784,41.6247912 18.9624121,41.78105 18.9624121,41.78105 C18.9624121,41.78105 19.1930653,41.7743147 19.2008668,41.8140529 C19.2083291,41.8537912 19.1506658,42.1723706 19.1506658,42.1723706 C19.1506658,42.1723706 18.9400251,42.2861971 18.9281533,42.3757765 C18.9149246,42.4653559 18.8650628,42.6536074 18.881005,42.7081632 C18.8969472,42.7627191 19.2388568,43.0439176 19.2313945,43.0954426 C19.2242714,43.1462941 19.0624749,43.1762662 19.0624749,43.1762662 C19.0624749,43.1762662 19.019397,43.3914588 19.0102387,43.4554441 C19.0017588,43.5194294 19.1520226,43.5659029 19.156093,43.6319088 C19.1598241,43.6979147 18.8240201,43.8471015 18.8043467,43.9871956 C18.7843342,44.1279632 18.7504146,44.3707706 18.7344724,44.4856074 C18.7188693,44.6007809 18.9318844,44.6691441 18.9318844,44.6691441 C18.9318844,44.6691441 18.8962688,44.9244118 18.8837186,45.0146647 C18.8837186,45.0146647 18.6371231,44.9934485 18.6517085,45.0735985 C18.6669724,45.1540853 19.0478894,45.7144618 19.0478894,45.7144618 C19.0478894,45.7144618 19.0963945,45.9299912 19.305,45.6585588 C19.5136055,45.3881368 19.760201,45.0311662 19.760201,45.0311662 L20.1889447,41.9719956 L20.1709673,41.9588618 C19.9006281,41.7618544 19.8833291,41.6119941 19.8782412,41.5631632"/>
    <path d="M20.8293467,38.8549015 C20.7689698,39.0549397 20.5851256,39.2014324 20.364309,39.2014324 C20.2730653,39.2014324 20.1892839,39.1751647 20.1160176,39.1320588 C20.2245603,39.1202721 20.3286935,39.0923206 20.4297739,39.0569603 C20.4552136,39.0478676 20.4789573,39.0364176 20.5033794,39.0259779 C20.5033794,39.0259779 20.6831533,38.93 20.622098,38.6629456 C20.5603643,38.3962279 20.3039322,38.39185 20.3039322,38.39185 C20.2913819,38.3982485 20.2781533,38.4029632 20.265603,38.4083515 C20.1662186,38.4524676 20.0634422,38.48345 19.9548995,38.48345 C19.9508291,38.48345 19.9457412,38.4817662 19.9409925,38.4817662 C20.0244347,38.3346 20.1814824,38.2339074 20.364309,38.2339074 C20.4172236,38.2339074 20.4677638,38.2443471 20.5152513,38.2598382 C20.7096106,38.32315 20.8513945,38.5029824 20.8513945,38.7175015 C20.8513945,38.7656588 20.8425754,38.8111221 20.8293467,38.8549015 L20.8293467,38.8549015 Z M42.9567965,22.3689221 C42.4378266,20.6332368 41.5250503,19.4956456 40.0451382,18.6106279 C34.9524497,15.566275 27.3887186,17.031875 23.8305528,20.3618044 C23.4296231,20.7362868 23.0297111,21.3057559 22.9798492,21.8186485 C22.8095729,23.5634265 21.7634925,24.6137956 20.3704146,25.4260721 C19.4230402,25.9780294 18.4570101,26.4966471 17.4930151,27.0209897 L17.4930151,27.0206529 C16.3044724,27.6672412 14.7071985,26.5569279 15.3269095,29.5669309 C15.3540452,29.6992794 15.3842337,29.8366794 15.4201884,29.9855294 C15.9907161,31.8505324 17.0598618,33.2966 18.5085678,34.2021603 C19.3982789,34.7581588 19.7249246,35.2636426 21.1553141,35.3212294 C21.1678643,35.3872353 21.181093,35.4529044 21.1905905,35.5199206 C21.2051759,35.6192662 21.2163693,35.7199588 21.2241709,35.8219985 C21.2343467,35.9466015 21.2407915,36.0722147 21.2407915,36.2005221 C21.2394347,36.8578868 21.0898492,37.4411632 20.8473241,37.8543735 C20.7194472,37.8402294 20.5895352,37.8388824 20.4572487,37.8537 C20.0569975,37.8988265 19.7045729,38.0763015 19.4369472,38.3349368 C18.6564573,37.9075824 17.8919095,36.5830868 17.8925879,35.0285809 C17.8925879,34.9201426 17.8986935,34.8147353 17.906495,34.710675 C17.6917839,34.5752956 17.4872487,34.4277926 17.2884799,34.2725441 C17.2504899,34.5113103 17.2287814,34.7625368 17.228103,35.0282441 C17.2267462,36.6891676 18.008593,38.2722985 19.0546734,38.8804956 C18.9339196,39.1522647 18.8803266,39.4580471 18.9169598,39.7746059 C19.0010804,40.5121206 19.5390452,41.0869779 20.2225251,41.260075 C20.1899623,41.3668294 20.1702889,41.4665118 20.1780905,41.52915 C20.1855528,41.59785 20.3497236,41.7174015 20.3497236,41.7174015 C20.3497236,41.7174015 20.5708794,41.6534162 20.5881784,41.6904603 C20.6061558,41.7271676 20.6292211,42.0494515 20.6292211,42.0494515 C20.6292211,42.0494515 20.4545352,42.2117721 20.4650503,42.3016882 C20.4748869,42.3919412 20.4735302,42.5862544 20.502701,42.6350853 C20.5325503,42.6842529 20.9334799,42.8721676 20.9385678,42.9236926 C20.9446734,42.9748809 20.7957663,43.0439176 20.7957663,43.0439176 C20.7957663,43.0439176 20.8083166,43.2628147 20.8154397,43.3271368 C20.8222236,43.3914588 20.9806281,43.3988676 21.0009799,43.4618426 C21.0209925,43.5244809 20.7326759,43.7524706 20.7486181,43.8932382 C20.7652387,44.0340059 20.7930528,44.2778235 20.8062814,44.3929971 C20.8195101,44.5088441 21.0433794,44.5226515 21.0433794,44.5226515 C21.0433794,44.5226515 21.0725503,44.7785926 21.0830653,44.8685088 C21.0830653,44.8685088 20.8388442,44.9085838 20.8737814,44.9830088 C20.9083794,45.0574338 21.4178518,45.5060044 21.4178518,45.5060044 C21.4178518,45.5060044 21.5182538,45.702675 21.6529146,45.3881368 C21.7865578,45.0749456 21.9364824,44.6677971 21.9364824,44.6677971 L21.5263945,41.0839471 C22.1118467,40.7495397 22.4730905,40.092175 22.3923618,39.3832853 C22.325201,38.8010191 21.9754899,38.3204559 21.4951884,38.0577794 C21.752299,37.5640824 21.904598,36.9282706 21.9052764,36.2011956 C21.9052764,36.0887162 21.9005276,35.9772471 21.8947613,35.8654412 C21.8879774,35.7657588 21.8781407,35.6664132 21.8662688,35.5670676 C21.8564322,35.4832132 21.8428643,35.4000324 21.8289573,35.3171882 C22.0277261,35.3087691 22.2373492,35.2963088 22.4717337,35.2747559 C24.3698744,35.0993015 26.2849749,35.1087309 28.1895603,34.9807603 C29.4191457,34.8979162 30.5415452,35.2952985 30.9448492,36.3955088 C31.3284799,37.4441941 31.7772362,38.5167897 32.131696,39.5957838 C32.2029271,39.6092544 32.2765327,39.6233985 32.3487814,39.6372059 C32.3355528,38.7818235 32.3932161,37.5923706 32.3932161,37.5923706 C32.3932161,37.5923706 33.308706,38.09415 34.5396482,38.6195029 C34.7343467,38.4160971 35.0080779,38.2881265 35.3126759,38.2881265 C35.3828894,38.2881265 35.4520854,38.2955353 35.5195854,38.3086691 L37.4553769,35.8038132 L37.6334548,35.5731294 L38.4794095,38.5609059 C39.5370226,38.18575 44.8115201,36.1863779 46.8585678,32.9696015 C46.7354397,32.7153441 46.6184171,32.4594029 46.5193719,32.1987471 C45.2904648,28.9365074 43.9516583,25.7025559 42.9567965,22.3689221 L42.9567965,22.3689221 Z"/>
    <path d="M51.4492462,40.6370603 C49.9062437,39.1441824 48.2699623,37.7193309 47.8446106,35.3653456 C47.7730402,34.9669529 47.6312563,34.5816941 47.4609799,34.2014868 C44.3288442,38.2366015 39.3599623,39.4385147 38.7850251,39.5658118 L39.6686307,42.9001191 L38.5343593,42.1814632 L35.9866583,40.5663397 C35.8024749,40.7165368 35.569108,40.8098206 35.3126759,40.8098206 C35.1993844,40.8098206 35.0935553,40.7859103 34.9921357,40.7522338 L32.7429271,43.6477368 C32.6934045,47.0200985 32.4223869,50.3921235 32.1320352,53.7624647 C31.0727261,53.8954868 29.9951005,53.9715956 28.8991583,53.9715956 C14.7543467,53.9715956 3.24678392,42.5465162 3.24678392,28.5027544 C3.24678392,14.4596662 14.7543467,3.03425 28.8991583,3.03425 C43.0439698,3.03425 54.5515327,14.4596662 54.5515327,28.5027544 C54.5515327,32.8931559 53.4274372,37.0272794 51.4492462,40.6370603 L51.4492462,40.6370603 Z M28.8991583,0.0380544118 C13.0651508,0.0380544118 0.229296482,12.7822412 0.229296482,28.5027544 C0.229296482,44.2239412 13.0651508,56.9684647 28.8991583,56.9684647 C29.9028392,56.9684647 30.8946482,56.9162662 31.8718719,56.8165838 C41.2462312,55.8581515 49.2814447,50.4153603 53.764598,42.6839162 C56.1854397,38.5087074 57.5700377,33.6663676 57.5700377,28.5027544 C57.5700377,12.7822412 44.733505,0.0380544118 28.8991583,0.0380544118 L28.8991583,0.0380544118 Z"/>
    <g transform="translate(72.225 15.491)">
      <path d="M86.0059749 5.85364412C83.927918 5.85364412 82.23714 6.69319853 80.8424265 8.41878088 79.9307924 6.76189853 78.316451 5.85364412 76.2725358 5.85364412 73.9743414 5.85364412 72.639758 7.05538897 71.7347485 8.21318603L71.7347485 6.16936103 67.9750859 6.16936103 67.9750859 21.5859441 71.7347485 21.5859441 71.7347485 12.929239C71.7347485 10.703561 72.9699642 9.26540735 74.8818989 9.26540735 76.7709025 9.26540735 77.8537546 10.5585838 77.8537546 12.8150757L77.8537546 21.5859441 81.6139268 21.5859441 81.6139268 12.9009507C81.6139268 10.6580978 82.8200966 9.26540735 84.7610772 9.26540735 86.6781076 9.26540735 87.732933 10.5358522 87.732933 12.8438691L87.732933 21.5859441 91.4931051 21.5859441 91.4931051 11.7810397C91.4931051 8.06921912 89.4425654 5.85364412 86.0059749 5.85364412M108.183805 6.16936103L104.257511 6.16936103 100.374021 17.1856081 96.1210876 6.16936103 92.1051076 6.16936103 98.531389 21.4576368C98.001938 22.6427118 97.4464986 23.0847154 96.4961366 23.0847154 95.8571265 23.0847154 95.1865225 22.8973059 94.5006313 22.5260228L94.380371 22.461364 93.0865538 25.2770537 93.1920363 25.333125C94.4140031 25.9883007 95.5146904 26.2676471 96.8732239 26.2676471 99.3966515 26.2676471 100.794932 25.0936853 102.032696 21.9355059L108.183805 6.16936103M120.302067 13.1019993L120.302067 13.159586C120.302067 15.4236551 118.385037 17.1977316 115.939065 17.1977316 113.494622 17.1977316 111.719763 15.4878088 111.719763 13.1307926L111.719763 13.073711C111.719763 10.7333647 113.494622 9.03506029 115.939065 9.03506029 118.425803 9.03506029 120.302067 10.7833743 120.302067 13.1019993L120.302067 13.1019993zM120.244485 8.22429926C119.269154 7.13823309 117.696597 5.85364412 115.011124 5.85364412 111.57963 5.85364412 107.931055 8.39402868 107.931055 13.1019993L107.931055 13.159586C107.931055 17.8488662 111.57963 20.3791478 115.011124 20.3791478 117.169185 20.3791478 118.805438 19.5901081 120.273021 17.8281551L120.273021 18.6449779C120.273021 21.6056449 118.643902 23.1716007 115.561468 23.1716007 113.64189 23.1716007 111.932767 22.6664537 110.183387 21.5819029L110.063637 21.5081515 108.645483 24.3516243 108.745869 24.4107265C110.745451 25.6064096 113.132312 26.2378434 115.649115 26.2378434 118.490519 26.2378434 120.63635 25.539225 122.025968 24.1621941 123.338639 22.8609353 124.004657 20.9070265 124.004657 18.3580544L124.004657 6.16936103 120.244485 6.16936103 120.244485 8.22429926 120.244485 8.22429926zM136.730845 14.8543544C136.730845 17.0623522 135.428365 18.4898978 133.410947 18.4898978 131.411365 18.4898978 130.264816 17.1856081 130.264816 14.911436L130.264816 6.16936103 126.503625 6.16936103 126.503625 15.9454721C126.503625 19.6199118 128.639264 21.901661 132.077893 21.901661 133.984222 21.901661 135.509897 21.1146419 136.730845 19.4981713L136.730845 21.5859441 140.491017 21.5859441 140.491017 6.16936103 136.730845 6.16936103 136.730845 14.8543544M149.926353 8.94969044C151.954471 8.94969044 153.377721 10.3782463 153.665632 12.688789L146.104522 12.688789C146.464793 10.411586 147.95174 8.94969044 149.926353 8.94969044L149.926353 8.94969044zM149.954889 5.85364412C145.621952 5.85364412 142.353013 9.30278824 142.353013 13.8774L142.353013 13.9349868C142.353013 18.5681956 145.708071 21.9304544 150.332486 21.9304544 152.937956 21.9304544 155.075633 20.9585515 156.687936 19.0415184L156.766921 18.947561 154.528347 16.9784978 154.443757 17.0613419C153.159112 18.3045088 151.946828 18.8344081 150.390068 18.8344081 148.151495 18.8344081 146.533586 17.4609132 146.136116 15.2392765L157.344782 15.2392765 157.361088 15.0427743C157.387586 14.7290779 157.412555 14.4330618 157.412555 14.1360353 157.412555 10.013025 155.106717 5.85364412 149.954889 5.85364412L149.954889 5.85364412zM165.582611 12.3791338L165.278393 12.2821456C163.639083 11.761339 162.223986 11.3112529 162.223986 10.3742051L162.223986 10.3161132C162.223986 9.45534265 162.995996 8.92089706 164.240384 8.92089706 165.446554 8.92089706 166.99516 9.43665221 168.49077 10.3378346L168.603386 10.4055243 170.116322 7.71915221 170.017973 7.65499853C168.350636 6.56287059 166.22264 5.91072574 164.327012 5.91072574 161.045333 5.91072574 158.753254 7.86412941 158.753254 10.6611287L158.753254 10.7182103C158.753254 13.6803926 161.268528 14.6325949 163.623286 15.2902963L163.984576 15.3989029C165.577006 15.8772772 166.952355 16.2909926 166.952355 17.295225L166.952355 17.3523066C166.952355 18.2984471 166.111552 18.8632015 164.704099 18.8632015 163.108612 18.8632015 161.355666 18.209036 159.768332 17.0219404L159.659792 16.9411169 157.956275 19.5052434 158.048508 19.5774794C159.916619 21.0363441 162.310614 21.8733728 164.616452 21.8733728 168.197253 21.8733728 170.422578 19.9977618 170.422578 16.9795081L170.422578 16.9214162C170.422578 14.2426213 168.095847 13.1555449 165.582611 12.3791338M180.593234 9.40836397L180.593234 6.16936103 176.479925 6.16936103 176.479925 2.00442353 172.718734 2.00442353 172.718734 6.16936103 170.778263 6.16936103 170.778263 9.40836397 172.718734 9.40836397 172.718734 17.2664316C172.718734 20.304386 174.243899 21.8445794 177.250406 21.8445794 178.486641 21.8445794 179.509363 21.5930162 180.470936 21.0525088L180.535652 21.0156331 180.535652 17.8953397 180.350675 17.985761C179.65816 18.3302713 178.986027 18.4898978 178.235419 18.4898978 177.037403 18.4898978 176.479925 17.9276691 176.479925 16.7208728L176.479925 9.40836397 180.593234 9.40836397M9.69980704 6.28352426L5.64306085 6.28352426 5.64306085 5.57732868C5.64306085 4.0962375 6.24741972 3.40671176 7.54429437 3.40671176 8.29541155 3.40671176 8.89365549 3.55269926 9.56069239 3.77243824L9.72885296 3.82800441 9.72885296.629413235 9.63712901.602640441C8.9522569.401591912 8.07476451.194986765 6.76209296.194986765 5.22520732.194986765 4.06744732.601630147 3.2246062 1.43815368 2.37259268 2.28275956 1.94098056 3.57846176 1.94098056 5.2899L1.94098056 6.25523603.36847579e-13 6.25523603.36847579e-13 9.40836397 1.94098056 9.40836397 1.94098056 21.5859441 5.70166225 21.5859441 5.70166225 9.40836397 9.69980704 9.40836397 9.69980704 6.28352426M17.0479141 8.94969044C19.076542 8.94969044 20.4997918 10.3782463 20.7871935 12.688789L13.2260831 12.688789C13.5853352 10.411586 15.0733014 8.94969044 17.0479141 8.94969044L17.0479141 8.94969044zM17.07696 5.85364412C12.7424941 5.85364412 9.47508338 9.30278824 9.47508338 13.8774L9.47508338 13.9349868C9.47508338 18.5681956 12.8301414 21.9304544 17.4530282 21.9304544 20.0595169 21.9304544 22.1977039 20.9585515 23.8089879 19.0415184L23.888482 18.947561 21.6499082 16.9784978 21.5653183 17.0613419C20.2806735 18.3045088 19.0683887 18.8344081 17.5116296 18.8344081 15.2735654 18.8344081 13.6551473 17.4609132 13.2581865 15.2392765L24.4658332 15.2392765 24.4816301 15.0498463C24.5086377 14.7341294 24.5341166 14.4350824 24.5341166 14.1360353 24.5341166 10.013025 22.2282786 5.85364412 17.07696 5.85364412L17.07696 5.85364412zM30.8513485 2.00442353L27.0911763 2.00442353 27.0911763 6.16936103 25.1501958 6.16936103 25.1501958 9.40836397 27.0911763 9.40836397 27.0911763 17.2664316C27.0911763 20.304386 28.6158321 21.8445794 31.6228487 21.8445794 32.8575549 21.8445794 33.8807865 21.5930162 34.8423592 21.0525088L34.9070755 21.0156331 34.9070755 17.8953397 34.723118 17.985761C34.0300927 18.3302713 33.3584696 18.4898978 32.6068428 18.4898978 31.4098454 18.4898978 30.8513485 17.9276691 30.8513485 16.7208728L30.8513485 9.40836397 34.9656769 9.40836397 34.9656769 6.16936103 30.8513485 6.16936103 30.8513485 2.00442353M47.6118608 16.8047272C46.3486183 18.0893162 45.1521304 18.6626581 43.7329572 18.6626581 41.1962806 18.6626581 39.2833268 16.6173176 39.2833268 13.9061934L39.2833268 13.8491118C39.2833268 11.2137596 41.1611197 9.14972868 43.5597008 9.14972868 45.4053904 9.14972868 46.5137214 10.0428287 47.4365662 11.0066493L47.5298189 11.1041426 49.8748944 8.59406691 49.7964194 8.50819191C48.1153234 6.6724875 46.2003313 5.85364412 43.5887468 5.85364412 39.0652276 5.85364412 35.5231546 9.39068382 35.5231546 13.9061934L35.5231546 13.963275C35.5231546 18.4307956 39.0535073 21.9304544 43.5597008 21.9304544 46.8581958 21.9304544 48.6218434 20.4720949 49.9126031 19.0455596L49.9931163 18.9556434 47.7010369 16.7143059 47.6118608 16.8047272M59.8722946 5.85364412C57.9664749 5.85364412 56.4408 6.63965294 55.2193428 8.25561838L55.2193428.367747059 51.4591707.367747059 51.4591707 21.5859441 55.2193428 21.5859441 55.2193428 12.9009507C55.2193428 10.6919426 56.5223324 9.26540735 58.5397496 9.26540735 60.5393315 9.26540735 61.6858808 10.5696971 61.6858808 12.8438691L61.6858808 21.5859441 65.4470721 21.5859441 65.4470721 11.8098331C65.4470721 8.13539338 63.3109234 5.85364412 59.8722946 5.85364412"/>
    </g>
  </g>
</svg>
