<svg xmlns="http://www.w3.org/2000/svg" width="231" height="49" viewBox="0 0 231 49">
  <g fill="#FFFFFF" fill-rule="evenodd" transform="translate(.875 .56)">
    <path d="M27.6102701,40.0611101 C30.4801549,36.2758083 31.8986035,31.6142793 31.8986035,26.0064249 C31.8986035,21.3098469 30.7770395,17.4193979 28.5339111,14.370127 C26.2907829,11.285807 23.4868726,9.74364706 20.0891929,9.74364706 C15.8008595,9.74364706 12.238244,11.6362979 9.33537209,15.3865506 C6.49847457,19.1368032 5.04703862,23.8333813 5.04703862,29.4762849 C5.04703862,34.1728629 6.16860276,38.0633119 8.41173103,41.1476318 C10.6548593,44.1969026 13.4917568,45.7390626 16.9224236,45.7390626 C21.1777699,45.7390626 24.7403854,43.8464118 27.6102701,40.0611101 L27.6102701,40.0611101 L27.6102701,40.0611101 Z M0,9.46701303e-13 L0,25.8311795 C1.08857696,21.7654851 3.26573088,18.1203797 6.49847457,14.8257651 C11.4135645,9.84879434 17.2193082,7.36030893 23.8827188,7.36030893 C28.0061163,7.36030893 31.3708087,8.79732164 33.9438088,11.7063961 C36.5168088,14.6154706 37.8033088,18.4007724 37.8033088,23.0973504 C37.8033088,29.8618249 35.3292703,35.7150229 30.4141804,40.6569446 C27.5442957,43.53097 24.3445392,45.5988663 20.8149109,46.7905354 L44.037886,46.7905354 L44.037886,9.46701303e-13 L0,9.46701303e-13 L0,9.46701303e-13 L0,9.46701303e-13 Z" transform="translate(0 .114)"/>
    <g transform="translate(53.418 9.2)">
      <path d="M9.74886256 7.41212063C3.20359223 7.41212063.220937395 13.2028399.220937395 18.7619304.220937395 24.2920672 3.20359223 30.1117401 9.74886256 30.1117401 16.2941328 30.1117401 19.2767877 24.3210209 19.2767877 18.7619304 19.2767877 13.2028399 16.2941328 7.41212063 9.74886256 7.41212063L9.74886256 7.41212063 9.74886256 7.41212063zM9.74886256 26.9557981C4.80538835 26.9557981 3.78355289 21.6283364 3.78355289 18.7329768 3.78355289 15.8376171 4.80538835 10.5101554 9.74886256 10.5101554 14.6923368 10.5101554 15.7141723 15.8376171 15.7141723 18.7329768 15.7141723 21.6283364 14.6923368 26.9557981 9.74886256 26.9557981L9.74886256 26.9557981 9.74886256 26.9557981zM29.771314 25.5370718L29.6884625 25.5370718 24.3583478 8.04909975 20.3538575 8.04909975 27.8381118 29.5326682 31.511196 29.5326682 39.2992392 8.04909975 35.5433034 8.04909975 29.771314 25.5370718 29.771314 25.5370718 29.771314 25.5370718zM50.0699372 7.41212063C43.3037294 7.41212063 40.2382231 12.7106287 40.2382231 19.3699559 40.2382231 25.5660255 43.6351355 30.1406936 49.407125 30.1406936 52.6935687 30.1406936 54.0191931 29.329993 54.9581771 28.6640602 57.5541914 26.8689373 58.4931754 23.8288097 58.6036441 22.7864802L55.1514972 22.7864802C55.0410286 24.378928 53.1078263 27.0137053 49.8489998 27.0137053 45.8997439 27.0137053 43.8836901 24.4368352 43.8836901 19.9490279L58.8521987 19.9490279C58.8798158 12.334232 55.9800124 7.41212063 50.0699372 7.41212063L50.0699372 7.41212063 50.0699372 7.41212063zM43.9113073 17.0536682C43.9113073 13.7240046 46.4244701 10.6549234 49.6004452 10.6549234 53.7982557 10.6549234 55.1238801 13.7240046 55.3172003 17.0536682L43.9113073 17.0536682 43.9113073 17.0536682 43.9113073 17.0536682zM66.1983671 11.6103921L66.1155156 11.6103921 66.1155156 8.02014616 62.8566889 8.02014616 62.8566889 29.5037146 66.3088357 29.5037146 66.3088357 17.0247146C66.3088357 13.8977262 68.3525066 11.2629489 71.5560989 11.2629489L72.8541061 11.2629489 72.8541061 7.52793502C72.5779343 7.44107423 72.3846141 7.41212063 71.9427393 7.41212063 69.3743421 7.41212063 67.5792258 9.09142921 66.1983671 11.6103921L66.1983671 11.6103921 66.1983671 11.6103921zM85.1161314 17.3432041L81.6639847 16.4456427C79.0127359 15.7507564 77.9356661 15.345406 77.9356661 13.5792367 77.9356661 10.9155058 80.9459382 10.539109 82.023008 10.539109 86.3589043 10.539109 86.8283962 12.7974895 86.8836307 14.1583086L90.2253087 14.1583086C90.2253087 13.0870255 89.7281996 7.41212063 82.3820312 7.41212063 78.3499237 7.41212063 74.6216052 9.55468675 74.6216052 14.274123 74.6216052 17.2273897 76.4995731 18.7619304 79.3717592 19.4857703L83.3762495 20.5280998C86.30367 21.3098469 87.4635913 21.8889188 87.4635913 23.5971809 87.4635913 25.9713759 85.2266002 27.0137053 82.7686717 27.0137053 77.908049 27.0137053 77.438557 24.2920672 77.3280883 22.6127587L73.9864102 22.6127587C74.0968789 25.1896287 74.7044567 30.1406936 82.7962888 30.1406936 87.4083569 30.1406936 90.9157381 27.4769629 90.9157381 23.0470626 90.8881209 20.0937957 89.3967935 18.4723944 85.1161314 17.3432041L85.1161314 17.3432041 85.1161314 17.3432041zM99.0628045 2.02675174L95.6106577 2.02675174 95.6106577 8.02014616 92.8213232 8.02014616 92.8213232 11.0313202 95.6106577 11.0313202 95.6106577 25.2185823C95.6106577 27.7954524 96.3563215 29.8222041 99.7532339 29.8222041 100.112257 29.8222041 101.078858 29.6484826 102.349248 29.5326682L102.349248 26.6952157 101.134093 26.6952157C100.416046 26.6952157 99.0628045 26.6952157 99.0628045 25.0159072L99.0628045 11.0313202 102.349248 11.0313202 102.349248 8.02014616 99.0628045 8.02014616 99.0628045 2.02675174 99.0628045 2.02675174 99.0628045 2.02675174zM113.893227 7.41212063C107.347957 7.41212063 104.365302 13.2028399 104.365302 18.7619304 104.365302 24.2920672 107.347957 30.1117401 113.893227 30.1117401 120.438498 30.1117401 123.421152 24.3210209 123.421152 18.7619304 123.393535 13.2028399 120.438498 7.41212063 113.893227 7.41212063L113.893227 7.41212063 113.893227 7.41212063zM113.893227 26.9557981C108.949753 26.9557981 107.927918 21.6283364 107.927918 18.7329768 107.927918 15.8376171 108.949753 10.5101554 113.893227 10.5101554 118.836701 10.5101554 119.858537 15.8376171 119.858537 18.7329768 119.858537 21.6283364 118.809084 26.9557981 113.893227 26.9557981L113.893227 26.9557981 113.893227 26.9557981zM135.876498 10.6549234C138.776301 10.6549234 140.295246 12.3921392 140.73712 15.2585452L144.078799 15.2585452C143.802627 11.5235313 141.758957 7.41212063 136.401224 7.41212063 129.635017 7.41212063 126.56951 12.7106287 126.56951 19.3699559 126.56951 25.5660255 129.966422 30.1406936 135.738412 30.1406936 141.731339 30.1406936 143.719776 25.3343967 144.078799 21.9178724L140.73712 21.9178724C140.157161 25.2185823 138.141107 27.0137053 135.848881 27.0137053 131.098727 27.0137053 130.242594 22.4390371 130.242594 18.7619304 130.214978 14.9400557 131.595836 10.6549234 135.876498 10.6549234L135.876498 10.6549234 135.876498 10.6549234zM163.935547 8.02014616L159.544416 8.02014616 150.734537 17.1115754 150.734537.0289535963 147.39286.0289535963 147.39286 29.5326682 150.734537 29.5326682 150.734537 21.367754 153.606724 18.646116 159.986292 29.5037146 164.405039 29.5037146 156.09227 16.0402923 163.935547 8.02014616 163.935547 8.02014616 163.935547 8.02014616zM168.906638.492211137L168.906638 3.50338514 168.354295 3.50338514 168.354295.492211137 167.304842.492211137 167.304842.0289535963 169.928475.0289535963 169.928475.492211137 168.906638.492211137 168.906638.492211137 168.906638.492211137zM173.712026 3.50338514L173.712026.579071925 173.68441.579071925 172.60734 3.47443155 172.248317 3.47443155 171.171247.579071925 171.14363.579071925 171.14363 3.47443155 170.591287 3.47443155 170.591287.40068184e-13 171.447418.40068184e-13 172.441637 2.63477725 173.408238.40068184e-13 174.236753.40068184e-13 174.236753 3.47443155 173.712026 3.47443155 173.712026 3.50338514 173.712026 3.50338514z"/>
    </g>
  </g>
</svg>
