<svg xmlns="http://www.w3.org/2000/svg" width="169" height="37" viewBox="0 0 169 37">
  <g fill="none" fill-rule="evenodd">
    <rect width="169" height="37"/>
    <g transform="translate(53 3)">
      <path fill="#000000" fill-opacity=".602" d="M13.665,7.99 C13.665,7.99 9.395,7.115 6.875,7.115 C3.2,7.115 0.12,8.76 0.12,12.82 C0.12,16.67 2.115,17.58 5.895,18.21 C9.115,18.735 9.5,19.085 9.5,19.855 C9.5,20.765 8.905,21.22 6.665,21.22 C4.88,21.22 0.54,20.66 0.54,20.66 L0.4,24.58 C0.4,24.58 4.53,25.42 7.12,25.42 C11.495,25.42 14.155,23.845 14.155,19.75 C14.155,16.215 12.72,15.025 8.66,14.29 C5.44,13.695 4.775,13.52 4.775,12.715 C4.775,11.77 5.195,11.315 7.225,11.315 C9.255,11.315 13.595,11.875 13.595,11.875 L13.665,7.99 Z M15.55,25 L20.24,25 L20.24,7.5 L15.55,7.5 L15.55,25 Z M15.55,5.26 L20.24,5.26 L20.24,0.5 L15.55,0.5 L15.55,5.26 Z M32.275,11.49 L32.275,7.5 L27.97,7.5 L27.97,2.635 L23.28,2.635 L23.28,7.5 L21.215,7.5 L21.215,11.49 L23.28,11.49 L23.28,18.77 C23.28,23.81 24.505,25.42 28.74,25.42 C29.965,25.42 32.31,24.895 32.31,24.895 L32.1,21.15 C32.1,21.15 30.42,21.22 29.44,21.22 C27.97,21.22 27.97,20.415 27.97,18.665 L27.97,11.49 L32.275,11.49 Z M40.705,21.29 C38.185,21.29 37.205,20.345 37.17,18.245 L47.46,18.245 L47.81,14.99 C47.81,9.705 45.325,7.08 40.18,7.08 C35.07,7.08 32.445,10.265 32.445,16.495 C32.445,22.795 34.685,25.42 39.97,25.42 C43.225,25.42 47.25,24.44 47.25,24.44 L47.18,20.975 C47.18,20.975 43.575,21.29 40.705,21.29 L40.705,21.29 Z M37.135,14.675 C37.17,12.015 37.94,10.93 40.18,10.93 C42.385,10.93 43.19,11.84 43.19,14.675 L37.135,14.675 Z"/>
      <path fill="#FFFFFF" d="M63.575,12.96 C63.575,8.865 61.755,7.08 57.205,7.08 C53.845,7.08 50.1,8.095 50.1,8.095 L50.24,11.35 C50.24,11.35 54.51,11.07 56.82,11.07 C58.22,11.07 58.885,11.455 58.885,12.96 L58.885,14.045 L55.14,14.325 C51.29,14.605 49.015,15.725 49.015,19.68 C49.015,23.39 50.765,25.42 54.44,25.42 C57.065,25.42 59.585,24.195 59.585,24.195 C61.055,25.175 62.245,25.42 64.59,25.42 L64.73,21.885 C63.785,21.71 63.645,21.29 63.575,20.24 L63.575,12.96 Z M58.885,17.3 L58.885,21.045 C58.885,21.045 56.96,21.605 55.455,21.605 C54.195,21.605 53.74,20.765 53.74,19.54 C53.74,18.28 54.475,17.685 55.7,17.58 L58.885,17.3 Z M66.055,32.35 L70.745,32.35 L70.745,25.14 C70.745,25.14 72.355,25.42 73.65,25.42 C79.005,25.42 81.595,23.565 81.595,16.11 C81.595,9.6 79.32,7.08 74.7,7.08 C72.985,7.08 70.71,8.445 70.71,8.445 L70.71,7.5 L66.055,7.5 L66.055,32.35 Z M73.79,11.28 C75.645,11.28 76.835,12.575 76.835,16.11 C76.835,19.82 76.1,21.36 73.3,21.36 C72.32,21.36 70.745,21.15 70.745,21.15 L70.745,11.98 C70.745,11.98 72.355,11.28 73.79,11.28 L73.79,11.28 Z M83.095,32.35 L87.785,32.35 L87.785,25.14 C87.785,25.14 89.395,25.42 90.69,25.42 C96.045,25.42 98.635,23.565 98.635,16.11 C98.635,9.6 96.36,7.08 91.74,7.08 C90.025,7.08 87.75,8.445 87.75,8.445 L87.75,7.5 L83.095,7.5 L83.095,32.35 Z M90.83,11.28 C92.685,11.28 93.875,12.575 93.875,16.11 C93.875,19.82 93.14,21.36 90.34,21.36 C89.36,21.36 87.785,21.15 87.785,21.15 L87.785,11.98 C87.785,11.98 89.395,11.28 90.83,11.28 L90.83,11.28 Z M98.525,7.5 L102.83,25 L106.12,25 L104.195,32.35 L108.78,32.35 L114.94,7.5 L110.32,7.5 L107.135,21.01 L106.33,21.01 L103.145,7.5 L98.525,7.5 Z"/>
    </g>
    <path fill="#000000" fill-opacity=".602" d="M42.9479294,8.50042763 C42.4477553,3.72669491 38.4058802,0 33.4999595,0 L19.5000405,0 C14.2573008,0 10,4.25648621 10,9.50004048 L10,23.4999595 C10,24.7786381 10.2531963,25.998698 10.7121561,27.1126709 C10.9243818,27.0502 11.1405137,26.9845596 11.3603988,26.9157662 C12.0688665,26.6941145 12.8069939,26.4429449 13.5705436,26.1640356 C13.2040119,25.3507163 13,24.4488269 13,23.4999595 L13,9.50004048 C13,5.91284713 15.9146485,3 19.5000405,3 L33.4999595,3 C37.0871529,3 40,5.91464853 40,9.50004048 L40,11.0547298 C41.043019,10.2108764 42.0005847,9.3836638 42.8584498,8.58407154 C42.8884206,8.55613656 42.9182473,8.52825503 42.9479294,8.50042763 L42.9479294,8.50042763 Z M43,16.433579 L43,23.4999595 C43,28.7435138 38.7426992,33 33.4999595,33 L19.5000405,33 C17.9911392,33 16.5639746,32.6474632 15.2964536,32.0203547 C16.8759575,31.455498 18.5373193,30.7783209 20.2662988,30 L33.4999595,30 C37.0853515,30 40,27.0871529 40,23.4999595 L40,18.6598744 C41.0531408,17.9140628 42.0547706,17.1712974 43,16.433579 L43,16.433579 Z"/>
    <path fill="#FFFFFF" d="M10,17 C3.15324068,22.4898307 -0.264885726,27.175483 1,30 C4.02684888,34.5547953 16.2031195,30.8032672 30,23 C39.7286518,17.3198107 47.1581966,11.5287788 50,7 L48,7 C44.5894602,10.8268933 37.7184303,16.1780863 29,21 C16.4477391,28.3692 4.82308648,31.9507737 3,29 C2.20495313,27.4490919 4.79989908,24.0016605 10,20 L10,17 L10,17 Z"/>
    <circle cx="49.5" cy="6.5" r="2.5" fill="#FFFFFF"/>
  </g>
</svg>
