<svg xmlns="http://www.w3.org/2000/svg" width="32" height="32" viewBox="0 0 32 32" xmlns:xlink="http://www.w3.org/1999/xlink">
  <defs>
    <rect id="b" width="32" height="32"/>
    <rect id="a" width="28" height="20"/>
    <mask id="d" width="32" height="24" x="-2" y="-2">
      <rect width="32" height="24" x="-2" y="-2" fill="white"/>
      <use fill="black" xlink:href="#a"/>
    </mask>
  </defs>
  <g fill="none" fill-rule="evenodd">
    <mask id="c" fill="white">
      <use xlink:href="#b"/>
    </mask>
    <g transform="translate(2 6)" mask="url(#c)">
      <use stroke="#008BFF" stroke-width="4" mask="url(#d)" stroke-linecap="round" stroke-linejoin="round" xlink:href="#a"/>
      <rect width="14" height="2" x="2" y="16" fill="#008BFF" opacity=".5" rx="1"/>
      <rect width="14" height="2" x="2" y="12" fill="#008BFF" opacity=".5" rx="1"/>
      <path fill="#008BFF" d="M22.1118881,2 C19.1748252,2 18,3.23076923 18,6.16783217 C18,9.01165501 19.2307692,10.5501166 22.0745921,10.5501166 C22.4941725,10.5501166 23.3706294,10.4568765 23.3706294,10.4568765 L23.3333333,9.42191142 C23.3333333,9.42191142 22.4289044,9.50582751 22.0745921,9.50582751 C19.9487179,9.50582751 19.1282051,8.29370629 19.1282051,6.16783217 C19.1282051,3.96736597 19.9114219,3.04428904 22.1118881,3.04428904 C24.3496503,3.04428904 24.8717949,3.83682984 24.8717949,6.07459207 C24.8717949,7.17482517 24.6666667,7.55710956 24.2470862,7.55710956 C24.041958,7.55710956 23.958042,7.47319347 23.958042,7.13752914 L23.958042,4.11655012 C23.958042,4.11655012 22.5874126,3.93939394 21.8881119,3.93939394 C20.3589744,3.93939394 19.995338,4.92773893 19.995338,6.32634033 C19.995338,7.88344988 20.4335664,8.6013986 21.6177156,8.6013986 C22.0745921,8.6013986 22.6153846,8.35897436 22.951049,7.74358974 C23.2214452,8.4988345 23.5850816,8.6013986 24.2470862,8.6013986 C25.5990676,8.6013986 26,7.42657343 26,6.07459207 C26,3.23076923 24.955711,2 22.1118881,2 L22.1118881,2 Z M21.8787879,7.53846154 C21.3659674,7.53846154 21.2634033,7.12820513 21.2634033,6.1958042 C21.2634033,5.37529138 21.4498834,5.002331 22,5.002331 C22.1585082,5.002331 22.6620047,5.04895105 22.6993007,5.05827506 L22.6993007,6.8951049 C22.6993007,6.8951049 22.3636364,7.53846154 21.8787879,7.53846154 L21.8787879,7.53846154 Z"/>
    </g>
  </g>
</svg>
