<svg xmlns="http://www.w3.org/2000/svg" width="64" height="64" viewBox="0 0 64 64" xmlns:xlink="http://www.w3.org/1999/xlink">
  <defs>
    <rect id="a" width="34" height="34"/>
  </defs>
  <g fill="none" fill-rule="evenodd">
    <g transform="translate(15 15)">
      <mask id="b" fill="white">
        <use xlink:href="#a"/>
      </mask>
      <g transform="translate(.971 3.886)" mask="url(#b)">
        <g>
          <rect width="32.057" height="27.2" stroke="#FFFFFF" stroke-width="2" stroke-linecap="round" stroke-linejoin="round" rx="2"/>
          <ellipse cx="3.136" cy="3.221" fill="#FFFFFF" opacity=".4" rx="1.045" ry="1.074"/>
          <ellipse cx="6.62" cy="3.221" fill="#FFFFFF" opacity=".4" rx="1.045" ry="1.074"/>
          <ellipse cx="10.105" cy="3.221" fill="#FFFFFF" opacity=".4" rx="1.045" ry="1.074"/>
        </g>
        <path stroke="#FFFFFF" stroke-width="2" d="M0,6.44210526 L32.0571429,6.44210526" stroke-linecap="round" stroke-linejoin="round"/>
      </g>
    </g>
    <path fill="#FFFFFF" d="M32,62 C48.5685425,62 62,48.5685425 62,32 C62,15.4314575 48.5685425,2 32,2 C15.4314575,2 2,15.4314575 2,32 C2,48.5685425 15.4314575,62 32,62 Z M32,64 C14.326888,64 0,49.673112 0,32 C0,14.326888 14.326888,0 32,0 C49.673112,0 64,14.326888 64,32 C64,49.673112 49.673112,64 32,64 Z"/>
  </g>
</svg>
