<svg xmlns="http://www.w3.org/2000/svg" width="64" height="64" viewBox="0 0 64 64">
  <g fill="none" fill-rule="evenodd">
    <g transform="translate(14.08 16.64)">
      <ellipse cx="17.922" cy="15.958" fill="#FFFFFF" rx="3.342" ry="3.369"/>
      <path stroke="#FFFFFF" stroke-width="2" d="M29.7202867,10.8481007 C33.5070691,12.1622833 35.8353368,14.1544092 35.8353368,15.9582288 C35.8353368,17.8380021 33.3677728,19.9542329 29.3013317,21.3124701 C26.2268859,22.3393578 22.1813627,22.8753326 17.9219319,22.8753326 C13.5549145,22.8753326 9.41959138,22.3721973 6.31123747,21.3011207 C2.37776416,19.9457712 0.00852698885,17.8020735 0.00852698885,15.9582288 C0.00852698885,14.1690493 2.23153963,12.1923694 5.96509502,10.8801343 C9.11974781,9.77145016 13.3910364,9.10828122 17.9219319,9.10828122 C22.4089933,9.10828122 26.5773585,9.75734732 29.7202867,10.8481007 L29.7202867,10.8481007 Z"/>
      <path stroke="#FFFFFF" stroke-width="2" d="M12.0067997,12.552999 C14.2483985,8.63456034 16.8885674,5.31864848 19.3959685,3.11887513 C22.417054,0.468482686 25.2920482,-0.569552991 26.8420949,0.331550892 C28.4574263,1.27059811 29.0432571,4.48275341 28.1789002,8.71239454 C27.5253865,11.9102455 25.9649475,15.7108919 23.8370641,19.4306149 C21.6554207,23.2442896 19.1572128,26.6041889 16.6839197,28.7836139 C13.5541817,31.5415908 10.5284996,32.5396013 8.9440119,31.6184848 C7.40655584,30.7246338 6.81852669,27.7958783 7.55611123,23.8798573 C8.1793142,20.571064 9.74328387,16.5097838 12.0067997,12.552999 L12.0067997,12.552999 L12.0067997,12.552999 Z"/>
      <path stroke="#FFFFFF" stroke-width="2" d="M7.594949,8.27547534 C6.82592119,4.31331794 7.36964996,1.28389507 8.91823108,0.380172088 C10.5319637,-0.561628541 13.585092,0.530870934 16.7883753,3.39817838 C19.2103066,5.56598531 21.6972562,8.82689612 23.831335,12.5430598 C26.0193071,16.3530409 27.6592202,20.2129192 28.297079,23.4614732 C29.1042784,27.5723148 28.4508978,30.7132844 26.8679423,31.6370871 C25.3319518,32.53349 22.5212431,31.5844365 19.5241398,28.9844785 C16.9918239,26.7877272 14.2825731,23.393511 12.0124622,19.440554 C9.76440149,15.5258762 8.23320743,11.5639874 7.594949,8.27547534 L7.594949,8.27547534 Z"/>
    </g>
    <path fill="#FFFFFF" d="M32,62 C48.5685425,62 62,48.5685425 62,32 C62,15.4314575 48.5685425,2 32,2 C15.4314575,2 2,15.4314575 2,32 C2,48.5685425 15.4314575,62 32,62 Z M32,64 C14.326888,64 0,49.673112 0,32 C0,14.326888 14.326888,0 32,0 C49.673112,0 64,14.326888 64,32 C64,49.673112 49.673112,64 32,64 Z"/>
  </g>
</svg>
