<svg xmlns="http://www.w3.org/2000/svg" width="64" height="64" viewBox="0 0 64 64">
  <g fill="#FFFFFF" fill-rule="evenodd">
    <path d="M32,62 C48.5685425,62 62,48.5685425 62,32 C62,15.4314575 48.5685425,2 32,2 C15.4314575,2 2,15.4314575 2,32 C2,48.5685425 15.4314575,62 32,62 Z M32,64 C14.326888,64 0,49.673112 0,32 C0,14.326888 14.326888,0 32,0 C49.673112,0 64,14.326888 64,32 C64,49.673112 49.673112,64 32,64 Z"/>
    <path d="M49.4820398,18.9311003 C44.8574736,25.6087661 30.9276912,39.1153985 30.9276912,39.1153985 L30.9222387,39.1101029 C30.8895232,39.1449021 30.8599235,39.1812143 30.8248712,39.2152571 C29.9493427,40.0640552 28.7614594,40.4075082 27.6203124,40.2766329 C27.9871931,41.7684599 27.60006,43.4062923 26.4293133,44.5720658 C26.4293133,44.5720658 20.5716852,51.6068017 14.08,47.1744415 C14.08,47.1744415 17.5805559,46.2220023 17.8851214,43.4789167 C17.8851214,43.4789167 17.4177575,40.7146491 19.9874803,38.1531247 C21.1395324,37.0047507 22.751159,36.6106119 24.228808,36.9457434 C24.1104092,35.8533508 24.4648268,34.72162 25.3278923,33.8841694 C25.3621656,33.8501267 25.4003337,33.8213796 25.4361649,33.7888499 L25.4307123,33.7835543 C25.4307123,33.7835543 39.3519263,20.2693569 46.2377551,15.7840414 C47.1491148,15.1508471 48.4219026,15.2249845 49.2397895,16.0185578 C50.0600132,16.8136441 50.1355704,18.047503 49.4820398,18.9311003 L49.4820398,18.9311003 Z M25.3450289,39.1804578 C24.7670555,38.6191315 24.0177153,38.29913 23.2161862,38.29913 C22.4115412,38.29913 21.6512959,38.6138359 21.0787751,39.1849969 C19.1041624,41.1534217 19.4001596,43.4093183 19.407949,43.4796732 C19.2381401,45.0078125 18.3462539,46.3097568 17.4161996,47.092739 C17.7449123,47.1509899 18.0775196,47.1804935 18.4171374,47.1804935 C22.117102,47.1804935 25.2344195,43.6551823 25.2632402,43.6218961 C25.2640192,43.6218961 27.3967566,41.1738474 25.3450289,39.1804578 L25.3450289,39.1804578 Z M25.7640986,36.549335 C25.7640986,37.1515126 25.9892122,37.718891 26.4293133,38.1448031 C26.8694143,38.5714717 27.4793243,38.8188487 28.1009183,38.8188487 C28.7225124,38.8188487 29.284128,38.5722282 29.7102082,38.1576637 L30.9206808,36.9699515 C30.982217,36.9086747 31.0663426,36.8254592 31.1341103,36.7581302 L27.8648995,33.5830806 C27.7932371,33.6504095 27.7052169,33.7328685 27.6413438,33.7941454 L26.4285343,34.9568929 C25.9892122,35.3820485 25.7640986,35.9471574 25.7640986,36.549335 L25.7640986,36.549335 Z M48.1399264,17.0905247 C47.9459703,16.9021551 47.7192988,16.8741644 47.600121,16.8741644 C47.4349858,16.8741644 47.2776399,16.9225807 47.1054942,17.0421085 C42.2620458,20.1967325 33.0853548,28.667314 28.9554154,32.5527214 L32.1950265,35.6990239 C36.1987776,31.6925757 44.9415991,22.7756565 48.2162625,18.0482595 C48.4374814,17.7501967 48.4055449,17.3469798 48.1399264,17.0905247 L48.1399264,17.0905247 Z"/>
  </g>
</svg>
