<svg xmlns="http://www.w3.org/2000/svg" width="64" height="64" viewBox="0 0 64 64">
  <g fill="#FFFFFF" fill-rule="evenodd">
    <g transform="translate(16 16)">
      <path d="M4,6 C3.44771525,6 3,6.45530558 3,6.99180311 L3,25.0081969 C3,25.5559546 3.44386482,26 4,26 L4,26 C4.55228475,26 5,25.5446944 5,25.0081969 L5,6.99180311 C5,6.44404538 4.55613518,6 4,6 L4,6 L4,6 Z M28,6 C27.4477153,6 27,6.45530558 27,6.99180311 L27,25.0081969 C27,25.5559546 27.4438648,26 28,26 L28,26 C28.5522847,26 29,25.5446944 29,25.0081969 L29,6.99180311 C29,6.44404538 28.5561352,6 28,6 L28,6 L28,6 Z M6,4 C6,4.55228475 6.45530558,5 6.99180311,5 L25.0081969,5 C25.5559546,5 26,4.55613518 26,4 L26,4 C26,3.44771525 25.5446944,3 25.0081969,3 L6.99180311,3 C6.44404538,3 6,3.44386482 6,4 L6,4 L6,4 Z M6,28 C6,28.5522847 6.45530558,29 6.99180311,29 L25.0081969,29 C25.5559546,29 26,28.5561352 26,28 L26,28 C26,27.4477153 25.5446944,27 25.0081969,27 L6.99180311,27 C6.44404538,27 6,27.4438648 6,28 L6,28 L6,28 Z" opacity=".3"/>
      <path d="M0,25.9981014 L0,30.0018986 C0,31.1054196 0.886706352,32 1.99810135,32 L6.00189865,32 C7.10541955,32 8,31.1132936 8,30.0018986 L8,25.9981014 C8,24.8945804 7.11329365,24 6.00189865,24 L1.99810135,24 C0.894580447,24 0,24.8867064 0,25.9981014 L0,25.9981014 Z M6.00189865,2 C6.00478245,2 6,6.00189865 6,6.00189865 C6,6.00478245 1.99810135,6 1.99810135,6 C1.99521755,6 2,1.99810135 2,1.99810135 C2,1.99521755 6.00189865,2 6.00189865,2 L6.00189865,2 Z M30.0018986,2 C30.0047824,2 30,6.00189865 30,6.00189865 C30,6.00478245 25.9981014,6 25.9981014,6 C25.9952176,6 26,1.99810135 26,1.99810135 C26,1.99521755 30.0018986,2 30.0018986,2 L30.0018986,2 Z M30.0018986,26 C30.0047824,26 30,30.0018986 30,30.0018986 C30,30.0047824 25.9981014,30 25.9981014,30 C25.9952176,30 26,25.9981014 26,25.9981014 C26,25.9952176 30.0018986,26 30.0018986,26 L30.0018986,26 Z M6.00189865,26 C6.00478245,26 6,30.0018986 6,30.0018986 C6,30.0047824 1.99810135,30 1.99810135,30 C1.99521755,30 2,25.9981014 2,25.9981014 C2,25.9952176 6.00189865,26 6.00189865,26 L6.00189865,26 Z M0,1.99810135 L0,6.00189865 C0,7.10541955 0.886706352,8 1.99810135,8 L6.00189865,8 C7.10541955,8 8,7.11329365 8,6.00189865 L8,1.99810135 C8,0.894580447 7.11329365,0 6.00189865,0 L1.99810135,0 C0.894580447,0 0,0.886706352 0,1.99810135 L0,1.99810135 Z M24,1.99810135 L24,6.00189865 C24,7.10541955 24.8867064,8 25.9981014,8 L30.0018986,8 C31.1054196,8 32,7.11329365 32,6.00189865 L32,1.99810135 C32,0.894580447 31.1132936,0 30.0018986,0 L25.9981014,0 C24.8945804,0 24,0.886706352 24,1.99810135 L24,1.99810135 Z M24,25.9981014 L24,30.0018986 C24,31.1054196 24.8867064,32 25.9981014,32 L30.0018986,32 C31.1054196,32 32,31.1132936 32,30.0018986 L32,25.9981014 C32,24.8945804 31.1132936,24 30.0018986,24 L25.9981014,24 C24.8945804,24 24,24.8867064 24,25.9981014 L24,25.9981014 Z"/>
    </g>
    <path d="M32,62 C48.5685425,62 62,48.5685425 62,32 C62,15.4314575 48.5685425,2 32,2 C15.4314575,2 2,15.4314575 2,32 C2,48.5685425 15.4314575,62 32,62 Z M32,64 C14.326888,64 0,49.673112 0,32 C0,14.326888 14.326888,0 32,0 C49.673112,0 64,14.326888 64,32 C64,49.673112 49.673112,64 32,64 Z"/>
  </g>
</svg>
