<svg xmlns="http://www.w3.org/2000/svg" width="64" height="64" viewBox="0 0 64 64">
  <g fill="#FFFFFF" fill-rule="evenodd">
    <path d="M18.8398233,7.04060317 C18.3090527,7.04060317 17.8793814,6.62479641 17.8793814,6.11115277 C17.8793814,5.59750914 18.3090527,5.18358386 18.8398233,5.18358386 C19.3705938,5.18358386 19.8002651,5.59750914 19.8002651,6.11115277 C19.8002651,6.62479641 19.3705938,7.04060317 18.8398233,7.04060317 L18.8398233,7.04060317 Z M11.1601767,7.04060317 C10.6294062,7.04060317 10.1997349,6.62479641 10.1997349,6.11115277 C10.1997349,5.59750914 10.6294062,5.18358386 11.1601767,5.18358386 C11.6909473,5.18358386 12.1206186,5.59750914 12.1206186,6.11115277 C12.1206186,6.62479641 11.6909473,7.04060317 11.1601767,7.04060317 L11.1601767,7.04060317 Z M19.4075338,3.31903864 L19.7652693,2.79598761 L20.1230047,2.28046249 L20.9201326,1.12147172 C21.0192875,0.978479354 20.978459,0.786568544 20.8306987,0.692494618 C20.6848826,0.596539213 20.4846286,0.636050262 20.3893621,0.77904263 L19.1722839,2.54198801 L18.8067716,3.07256495 C17.6499641,2.63794341 16.36095,2.39523268 15,2.39523268 C13.6409942,2.39523268 12.3500359,2.63794341 11.1932284,3.07256495 L10.8296603,2.54198801 L10.4699807,2.02081846 L9.61452637,0.77904263 C9.51537144,0.636050262 9.31706159,0.598420692 9.1693013,0.692494618 C9.02348523,0.786568544 8.98265672,0.978479354 9.07986744,1.12147172 L9.87699531,2.28046249 L10.2347307,2.79598761 L10.5944104,3.31903864 C7.878343,4.54388116 6.04106048,6.86374419 6.04106048,9.51851039 L23.9589395,9.51851039 C23.9589395,6.86374419 22.121657,4.54388116 19.4075338,3.31903864 Z M6.1790997,10.7565233 L6.04106048,10.7565233 L6.04106048,24.3821907 C6.04106048,25.4640409 6.94900856,26.3445728 8.068876,26.3445728 L9.53092516,26.3445728 C9.48037559,26.5082615 9.45315659,26.679476 9.45315659,26.860098 L9.45315659,30.7829807 C9.45315659,31.8083865 10.3144435,32.64 11.3740403,32.64 C12.4336371,32.64 13.2949241,31.8083865 13.2949241,30.7829807 L13.2949241,26.860098 C13.2949241,26.679476 13.2657608,26.5082615 13.2171555,26.3445728 L16.7828445,26.3445728 C16.7342392,26.5082615 16.7070202,26.679476 16.7070202,26.860098 L16.7070202,30.7829807 C16.7070202,31.8083865 17.5663629,32.64 18.6259597,32.64 C19.6875007,32.64 20.5487876,31.8083865 20.5487876,30.7829807 L20.5487876,26.860098 C20.5487876,26.679476 20.5196244,26.5082615 20.4690748,26.3445728 L21.9330682,26.3445728 C23.0529357,26.3445728 23.9589395,25.4640409 23.9589395,24.3821907 L23.9589395,10.7565233 L6.1790997,10.7565233 Z M2.84088373,10.7565233 C1.77934272,10.7565233 0.92,11.5881368 0.92,12.6135426 L0.92,20.5627893 C0.92,21.5881951 1.77934272,22.4198086 2.84088373,22.4198086 C3.90048053,22.4198086 4.75982325,21.5881951 4.75982325,20.5627893 L4.75982325,12.6135426 C4.75982325,11.5881368 3.90048053,10.7565233 2.84088373,10.7565233 Z M27.1610605,10.7565233 C26.0995195,10.7565233 25.2401767,11.5881368 25.2401767,12.6135426 L25.2401767,20.5627893 C25.2401767,21.5881951 26.0995195,22.4198086 27.1610605,22.4198086 C28.2206573,22.4198086 29.08,21.5881951 29.08,20.5627893 L29.08,12.6135426 C29.08,11.5881368 28.2206573,10.7565233 27.1610605,10.7565233 Z" transform="translate(17 16)"/>
    <path d="M32,62 C48.5685425,62 62,48.5685425 62,32 C62,15.4314575 48.5685425,2 32,2 C15.4314575,2 2,15.4314575 2,32 C2,48.5685425 15.4314575,62 32,62 Z M32,64 C14.326888,64 0,49.673112 0,32 C0,14.326888 14.326888,0 32,0 C49.673112,0 64,14.326888 64,32 C64,49.673112 49.673112,64 32,64 Z"/>
  </g>
</svg>
