<svg xmlns="http://www.w3.org/2000/svg" width="64" height="64" viewBox="0 0 64 64">
  <g fill="#FFFFFF" fill-rule="evenodd">
    <path d="M24.1025371,11.6744828 L19.1714286,10.0193103 L19.1714286,2.84689655 L24.1085714,4.31816092 L24.1025371,11.6744828 Z M25.3885714,4.31816092 L30.3257143,2.84689655 L30.3085257,10.0143448 L25.3885714,11.6744828 L25.3885714,4.31816092 Z M29.32,2.07025287 L24.7185829,0.64 L20.1771429,2.07025287 L24.7251657,3.29636782 L29.32,2.07025287 Z M36.5368229,11.6744828 L31.6057143,10.0193103 L31.6057143,2.84689655 L36.5428571,4.31816092 L36.5368229,11.6744828 Z M37.8228571,4.31816092 L42.76,2.84689655 L42.7428114,10.0143448 L37.8228571,11.6744828 L37.8228571,4.31816092 Z M41.7542857,2.07025287 L37.1528686,0.64 L32.6114286,2.07025287 L37.1594514,3.29636782 L41.7542857,2.07025287 Z M5.45714286,14.8009195 L0.52,13.3296552 L0.52,20.502069 L5.45114514,22.1572414 L5.45714286,14.8009195 Z M6.73714286,14.8009195 L11.6742857,13.3296552 L11.657152,20.4972506 L6.73714286,22.1572414 L6.73714286,14.8009195 Z M10.6685714,12.5530115 L6.067136,11.1227586 L1.52571429,12.5530115 L6.073792,13.7791264 L10.6685714,12.5530115 Z M17.8854309,22.1572414 L12.9542857,20.502069 L12.9542857,13.3296552 L17.8914286,14.8009195 L17.8854309,22.1572414 Z M19.1714286,14.8009195 L24.1085714,13.3296552 L24.0913829,20.4972506 L19.1714286,22.1572414 L19.1714286,14.8009195 Z M23.1028571,12.5530115 L18.5014217,11.1227586 L13.96,12.5530115 L18.5080777,13.7791264 L23.1028571,12.5530115 Z M11.668288,32.64 L6.73714286,30.9848276 L6.73714286,23.8124138 L11.6742857,25.2836782 L11.668288,32.64 Z M12.9542857,25.2836782 L17.8914286,23.8124138 L17.8742949,30.9800147 L12.9542857,32.64 L12.9542857,25.2836782 Z M16.8857143,23.0357701 L12.2842789,21.6055172 L7.74285714,23.0357701 L12.2909349,24.2619034 L16.8857143,23.0357701 Z" transform="translate(11 16)"/>
    <path d="M32,62 C48.5685425,62 62,48.5685425 62,32 C62,15.4314575 48.5685425,2 32,2 C15.4314575,2 2,15.4314575 2,32 C2,48.5685425 15.4314575,62 32,62 Z M32,64 C14.326888,64 0,49.673112 0,32 C0,14.326888 14.326888,0 32,0 C49.673112,0 64,14.326888 64,32 C64,49.673112 49.673112,64 32,64 Z"/>
  </g>
</svg>
