<svg xmlns="http://www.w3.org/2000/svg" width="64" height="64" viewBox="0 0 64 64">
  <g fill="#FFFFFF" fill-rule="evenodd">
    <path d="M19.5844035,5.55499933 C20.6595948,4.20779921 21.4746592,2.30365603 21.1798487,0.36 C19.4225467,0.478538558 17.3685074,1.56984591 16.1699966,2.99230861 C15.0774635,4.28118023 14.1795439,6.19849436 14.5302335,8.05936156 C16.4513191,8.11769005 18.4340644,7.0000408 19.5844035,5.55499933 L19.5844035,5.55499933 Z M29.08,23.8381607 C28.3111804,25.5014636 27.9412221,26.2446816 26.9508129,27.7179465 C25.5692498,29.7744964 23.6211881,32.3353056 21.204898,32.3541212 C19.0602959,32.3767 18.5072853,30.989987 15.5957905,31.0069211 C12.6842957,31.0219736 12.0773329,32.3804631 9.92887712,32.3597659 C7.5145138,32.3390687 5.66857601,30.0285076 4.28701296,27.9719577 C0.421719423,22.22566 0.0151506605,15.4802516 2.39868412,11.8921083 C4.09432635,9.34447005 6.76881659,7.85427104 9.28145008,7.85427104 C11.8384015,7.85427104 13.4473347,9.22404993 15.5649607,9.22404993 C17.619,9.22404993 18.8695362,7.85050791 21.8272757,7.85050791 C24.0662942,7.85050791 26.4382665,9.04153818 28.1262012,11.0962065 C22.5922416,14.0577889 23.4882344,21.7740845 29.08,23.8381607 L29.08,23.8381607 Z" transform="translate(17 15)"/>
    <path d="M32,62 C48.5685425,62 62,48.5685425 62,32 C62,15.4314575 48.5685425,2 32,2 C15.4314575,2 2,15.4314575 2,32 C2,48.5685425 15.4314575,62 32,62 Z M32,64 C14.326888,64 0,49.673112 0,32 C0,14.326888 14.326888,0 32,0 C49.673112,0 64,14.326888 64,32 C64,49.673112 49.673112,64 32,64 Z"/>
  </g>
</svg>
