<svg xmlns="http://www.w3.org/2000/svg" width="64" height="64" viewBox="0 0 64 64">
  <g fill="#FFFFFF" fill-rule="evenodd">
    <path d="M15.0000009,0.64 C14.5719054,0.64 14.1556971,0.729230468 13.7874887,0.939299673 L2.13251318,7.72340613 C1.37828157,8.16110114 0.92,8.98844334 0.92,9.86838306 L0.92,23.4116957 C0.92,24.2911572 1.37828157,25.1175398 2.13251318,25.5565941 L5.17616847,27.3274857 C6.65493972,28.0620827 7.20032508,28.0507497 7.87339303,28.0507497 C10.0628457,28.0507497 11.3129707,26.7117262 11.3129707,24.3843773 L11.3129707,11.0156964 C11.3129707,10.8266983 11.1506419,10.6914147 10.9665376,10.6914147 L9.5065746,10.6914147 C9.3194988,10.6914147 9.16013976,10.8266983 9.16013976,11.0156964 L9.16013976,24.3843773 C9.16013976,25.4159615 8.09411916,26.4533731 6.36393701,25.5815727 L3.19655754,23.7109954 C3.08470806,23.6495407 2.99859324,23.5410735 2.99859324,23.4116957 L2.99859324,9.86838306 C2.99859324,9.73980431 3.08371908,9.60923072 3.19655754,9.5441831 L14.826785,2.78497688 C14.9356627,2.72192405 15.0653267,2.72192405 15.1732178,2.78497688 L26.8034452,9.5441831 C26.9143047,9.61122556 27.0014061,9.73589339 27.0014061,9.86838306 L27.0014061,23.4116957 C27.0014061,23.5410735 26.93703,23.6735634 26.8281899,23.7358986 L15.1732178,30.4951051 C15.0732458,30.5549642 14.9356627,30.5549642 14.826785,30.4951051 L11.8326187,28.69931 C11.7435348,28.6466336 11.6217906,28.6506234 11.5356758,28.69931 C10.7091896,29.1715645 10.5537879,29.2264745 9.77877004,29.4974415 C9.58773863,29.5644837 9.29772284,29.668801 9.87775236,29.9962733 L13.7874887,32.3158003 C14.1596555,32.5328888 14.5743841,32.64 15.0000009,32.64 C15.431556,32.64 15.8403473,32.5328888 16.212514,32.3158003 L27.8674868,25.5565941 C28.6217212,25.1144281 29.08,24.2911572 29.08,23.4116957 L29.08,9.86838306 C29.08,8.98844334 28.6217212,8.16293863 27.8674868,7.72340613 L16.212514,0.939299673 C15.8472747,0.729230468 15.4280973,0.64 15.0000009,0.64 Z M18.1178914,10.3174899 C14.7990686,10.3174899 12.8224257,11.7411157 12.8224257,14.1086088 C12.8224257,16.6769146 14.7842228,17.3825402 17.9694198,17.7001958 C21.780178,18.0761973 22.0771177,18.6401551 22.0771177,19.3962233 C22.0771177,20.7076313 21.0397998,21.2668005 18.5880501,21.2668005 C15.5077717,21.2668005 14.830743,20.4917383 14.6040767,18.9472767 C14.5773872,18.7816623 14.4506575,18.6479769 14.2823924,18.6479769 L12.7729364,18.6479769 C12.586853,18.6479769 12.4265043,18.8092778 12.4265043,18.9971591 C12.4265043,20.9741271 13.4935142,23.3120917 18.5880501,23.3120917 C22.2760714,23.3120917 24.4031645,21.8529499 24.4031645,19.2964588 C24.4031645,16.7620737 22.6848599,16.0818266 19.1076991,15.6051042 C15.4929224,15.123033 15.1484724,14.8871071 15.1484724,14.0338264 C15.1484724,13.3294751 15.4404652,12.3876026 18.1178914,12.3876026 C20.5092637,12.3876026 21.393162,12.9074237 21.7554303,14.5326582 C21.7871051,14.6854198 21.9207301,14.8069727 22.0771177,14.8069727 L23.586573,14.8069727 C23.6796149,14.8069727 23.7696881,14.7495078 23.8340266,14.6822262 C23.897373,14.6103951 23.941915,14.5294646 23.9330058,14.4328906 C23.6994122,11.6339259 21.8474824,10.3174899 18.1178914,10.3174899 Z" transform="translate(17 16)"/>
    <path d="M32,62 C48.5685425,62 62,48.5685425 62,32 C62,15.4314575 48.5685425,2 32,2 C15.4314575,2 2,15.4314575 2,32 C2,48.5685425 15.4314575,62 32,62 Z M32,64 C14.326888,64 0,49.673112 0,32 C0,14.326888 14.326888,0 32,0 C49.673112,0 64,14.326888 64,32 C64,49.673112 49.673112,64 32,64 Z"/>
  </g>
</svg>
